<svg xmlns="http://www.w3.org/2000/svg" width="166.244" height="63.438" viewBox="0 0 166.244 63.438">
  <g id="Group_50" data-name="Group 50" transform="translate(-38.056 -91.213)">
    <path id="Path_66" data-name="Path 66" d="M152.714,141.878c.442.011.885.036,1.325.024.4-.012.809-.081,1.211-.1.27-.01.54.046.811.043.215,0,.429-.054.644-.075s.434-.024.649-.051c.362-.05.722-.115,1.082-.169.426-.065.853-.114,1.277-.19.317-.057.625-.148.939-.214.274-.057.552-.088.823-.149.421-.093.835-.211,1.254-.3s.824-.139,1.233-.228c.256-.057.505-.174.763-.243.279-.073.568-.109.848-.185.335-.092.664-.213,1-.315.276-.083.556-.146.828-.24.292-.1.576-.231.864-.344a5.365,5.365,0,0,0,.595-.235c.251-.138.484-.31.722-.474.322-.223.65-.44.958-.684.371-.292.72-.617,1.09-.912.325-.258.669-.485,1-.733s.64-.507.964-.752c.293-.221.6-.418.883-.649.232-.188.432-.422.66-.616.267-.227.554-.43.825-.652.149-.121.284-.267.428-.4.062-.057.134-.1.192-.159.215-.224.432-.447.636-.684a9.348,9.348,0,0,0,.6-.771c.17-.249.306-.524.464-.782.221-.359.447-.715.671-1.071a.417.417,0,0,0,.033-.055c.185-.367.367-.737.552-1.1.306-.605.614-1.208.92-1.812.01-.019.019-.038.029-.058.274-.641.556-1.282.822-1.929a2.334,2.334,0,0,0,.2-.673,4.111,4.111,0,0,0-.07-.754c-.018-.177-.033-.351-.058-.525a15.948,15.948,0,0,0-.259-1.735,1.85,1.85,0,0,0-.5-.93,13,13,0,0,1-.837-1.035,2.723,2.723,0,0,0-.453-.4,6.112,6.112,0,0,0-2.438-1.108,1.414,1.414,0,0,0-.753.167,12.311,12.311,0,0,0-1.425.664,7.885,7.885,0,0,0-.877.671c-.191.143-.393.268-.577.42-.235.194-.46.4-.688.61-.182.165-.358.335-.539.5-.256.235-.516.465-.773.7-.348.32-.7.636-1.041.972-.312.308-.595.652-.906.959-.2.194-.439.34-.647.527-.225.2-.423.436-.651.636-.384.331-.787.636-1.174.964s-.757.682-1.143,1.01c-.27.233-.555.442-.828.668-.246.2-.476.424-.723.624-.263.215-.536.412-.805.619-.309.236-.616.476-.927.707-.187.139-.387.258-.573.4-.386.286-.765.587-1.155.867-.234.171-.484.316-.728.472-.3.192-.595.391-.9.573-.675.406-1.353.812-2.037,1.206a12.916,12.916,0,0,1-1.178.609c-.518.229-3.072,1.24-3.6,1.423a3.75,3.75,0,0,1-1,.213,2.181,2.181,0,0,1-.682-.238c.471-.138.844-.23,1.206-.361.479-.171,2.98-1.17,3.451-1.369s.943-.4,1.4-.631a13.128,13.128,0,0,0,1.439-.785,12.375,12.375,0,0,0,1.226-.968c.323-.276.609-.6.929-.875.271-.239.569-.439.848-.668.217-.179.423-.374.632-.564s.415-.4.627-.591c.235-.214.476-.423.713-.633.207-.183.421-.358.625-.546.326-.3.643-.613.969-.916.3-.28.616-.551.925-.825.118-.108.242-.207.349-.326.227-.258.432-.54.67-.785.191-.2.419-.354.628-.534.128-.109.251-.225.37-.344s.223-.26.347-.375c.343-.316.688-.632,1.042-.934.268-.227.552-.428.824-.649.236-.194.458-.408.693-.6.279-.224.567-.438.849-.656.379-.289.753-.588,1.137-.869.214-.155.447-.28.672-.42.307-.187.6-.4.921-.56a9.212,9.212,0,0,1,1.03-.437,8.506,8.506,0,0,1,1.12-.357,1.408,1.408,0,0,1,.69.021,5.078,5.078,0,0,1,1.475.58c.353.251.8.327,1.087.719.161.22.456.319.672.5a6.582,6.582,0,0,1,.476.512c.127.137.272.256.389.4a6.7,6.7,0,0,0,.577.761,4.769,4.769,0,0,1,.767,1.417,2.69,2.69,0,0,1,.167.839c.058.386.113.772.155,1.16a2.856,2.856,0,0,1,.02.6,3.827,3.827,0,0,1-.3,1.647,2.9,2.9,0,0,1-.457.484c-.018.019-.051.029-.064.051-.163.291-.317.588-.489.872-.224.372-.463.733-.694,1.1-.146.233-.276.479-.436.7s-.333.4-.495.6c-.146.184-.275.384-.421.566-.288.359-.588.7-.869,1.064-.163.212-.291.454-.452.668-.143.194-.315.363-.467.547s-.277.365-.428.536c-.265.305-.544.595-.812.9-.227.257-.433.534-.668.781s-.484.455-.722.684c-.218.211-.422.44-.646.642-.243.224-.5.435-.759.64-.323.255-.645.512-.984.74a10.725,10.725,0,0,1-1.824,1.151c-.632.26-1.232.611-1.864.873-.426.179-.885.261-1.326.4-.4.13-.782.292-1.178.42-.295.1-.6.154-.9.24-.318.092-.632.2-.949.292q-.438.129-.881.243c-.254.069-.511.125-.766.187-.3.071-.595.147-.892.22-.395.094-.789.189-1.185.273-.2.043-.4.058-.6.1-.324.058-.648.126-.973.187a3.777,3.777,0,0,1-.457.075c-.368.018-.738.013-1.107.038-.4.028-.8.1-1.2.112-.271.012-.545-.05-.817-.054-.291,0-.582.02-.873.032a.2.2,0,0,1-.058,0c-.379-.061-.758-.126-1.138-.18-.141-.018-.285,0-.424-.019a3.833,3.833,0,0,1-.428-.126c.01-.046.02-.092.03-.139m2.78-5.923c.353-.081.708-.159,1.061-.247.266-.067.528-.143.79-.219.246-.067.49-.143.734-.2a.427.427,0,0,1,.206.006,2.284,2.284,0,0,0,1.106-.082c.249-.062.51-.08.761-.14a3.319,3.319,0,0,0,.485-.186c.685-.29,1.379-.567,2.055-.884.513-.243,1-.558,1.508-.813.531-.263,1.08-.484,1.615-.734.438-.207.87-.426,1.3-.648.5-.26,1-.534,1.5-.8.553-.3,1.113-.585,1.655-.9a11.139,11.139,0,0,0,1.058-.724c.262-.2.5-.426.751-.64a4.56,4.56,0,0,0,1.034-1.087c.1-.164.2-.327.307-.486.175-.262.354-.516.53-.773a.306.306,0,0,0,.03-.047c.167-.32.323-.651.5-.964.187-.331.4-.648.6-.97a.406.406,0,0,0,.038-.074,13.927,13.927,0,0,0,.823-2.026,1.351,1.351,0,0,1,.644-.854,13.687,13.687,0,0,1,1.395-.825,2.793,2.793,0,0,1,.65-.2.21.21,0,0,1,.146.057,3.4,3.4,0,0,1,1.043,1.491,7.515,7.515,0,0,1,.2,1.177,6.519,6.519,0,0,1-.041,1.257,7.577,7.577,0,0,1-.589,2.21,4,4,0,0,1-.536.844c-.019.031-.037.065-.056.1-.159.311-.306.632-.483.93a11.727,11.727,0,0,1-.669,1.032c-.222.3-.488.565-.717.86s-.429.62-.665.909c-.2.246-.436.46-.651.69-.106.11-.207.223-.307.336-.279.314-.54.649-.844.934-.323.3-.688.547-1.029.827-.249.207-.476.446-.733.636-.436.323-.883.627-1.334.921a13.111,13.111,0,0,1-1.178.708,5.96,5.96,0,0,1-1.465.689,5.6,5.6,0,0,0-.692.315c-.322.122-.652.207-.977.317-.179.063-.35.153-.528.219-.3.106-.595.2-.894.3-.185.062-.374.114-.56.175-.354.112-.711.219-1.061.345s-.719.3-1.085.43c-.3.1-.6.179-.9.266-.436.125-.871.255-1.308.371a.359.359,0,0,1-.2-.03c-.335-.126-.765.206-1.059-.083a.726.726,0,0,0-.8-.114c-.178.059-.542-.079-.733-.044-.343.059-.512-.3-.853-.225-.175.038-.351.056-.528.084l-.516.084c-.026,0-.05.027-.073.025a2.7,2.7,0,0,1-1.266-.275,2.131,2.131,0,0,1-.3-.31c.036-.166.451-.207.63-.187.337.034.34,0,.68.014a.623.623,0,0,1,.129.026c.444.106.345.085.792-.039.271-.075.876.291,1.155.247s.773.181,1.061.171c.561-.018.637.236,1.43.116.123.131.549-.172.753-.153a1.781,1.781,0,0,0,.561-.028c.35-.078.689-.188,1.034-.287.314-.089.628-.171.935-.272.247-.082.488-.184.73-.279.477-.188.959-.367,1.431-.569.3-.13.588-.3.879-.45.434-.23.87-.454,1.3-.7.465-.265.92-.556,1.38-.827.355-.211.717-.4,1.069-.615.231-.138.448-.3.676-.443.318-.2.642-.393.956-.6.531-.353,1.067-.7,1.576-1.086.363-.275.69-.61,1.033-.917.215-.195.44-.378.639-.59a5.027,5.027,0,0,0,.351-.492c.165-.229.338-.453.508-.676.011-.016.024-.029.032-.043.151-.277.3-.556.456-.826.187-.313.386-.614.58-.921a.9.9,0,0,0,.053-.1c.125-.291.267-.574.411-.855a17.279,17.279,0,0,0,1.384-3.814,3.081,3.081,0,0,0-.015-.808c-.006-.2-.03-.395-.022-.59a1.773,1.773,0,0,0-.351-1.154.22.22,0,0,0-.191-.077,1.35,1.35,0,0,0-.9.468c-.245.317-.442.664-.668.984a5.632,5.632,0,0,0-.489,1.133c-.208.493-.407.991-.647,1.467a5.462,5.462,0,0,1-.479.647c-.134.188-.244.393-.376.581-.19.271-.408.519-.582.8a5.237,5.237,0,0,0-.459.907c-.137.365-.191.746-.592.944a5.291,5.291,0,0,0-.737.616c-.436.338-.871.681-1.335.974a8.158,8.158,0,0,1-.969.432c-.446.2-.893.408-1.329.636s-.849.5-1.28.732-.879.428-1.316.651c-.466.236-.928.485-1.391.732-.487.259-.969.532-1.46.778q-.885.446-1.784.855a6.4,6.4,0,0,1-.945.358,6.94,6.94,0,0,1-.846.119c-.179.026-.355.074-.535.1a4,4,0,0,1-.48.027c-.348.008-.7,0-1.046.018-.216.01-.429.051-.645.074-.151.017-.3.025-.457.032-.287.014-.572.038-.857.029a1.146,1.146,0,0,1-.34-.119ZM189.939,119.4l-.026-.087c-.165-.549-.283-1.12-.5-1.645a7.363,7.363,0,0,0-.986-1.964c-.223-.276-.333-.666-.555-.949-.3-.375-.653-.69-.979-1.035-.158-.167-.294-.357-.458-.513a3.852,3.852,0,0,0-.5-.4c-.289-.2-.592-.376-.877-.58-.3-.217-.592-.454-.886-.683-.032-.023-.068-.044-.1-.066a8.085,8.085,0,0,0-.8-.488,17.845,17.845,0,0,0-3.137-1.374,9.347,9.347,0,0,0-1.172-.227,7.386,7.386,0,0,0-1.261-.049c-.332.018-.661.13-.992.182-.19.028-.386.006-.575.033s-.4.086-.6.127c-.143.028-.287.049-.429.073-.5.088-.993.175-1.491.268-.365.067-.734.135-1.1.22-.425.1-.845.232-1.27.331-.281.065-.575.074-.852.154-.388.112-.768.259-1.148.4-.331.125-.663.252-.981.41a8.767,8.767,0,0,0-1.717.885c-.418.336-.893.588-1.331.9-.372.267-.717.581-1.088.848-.494.356-1.008.68-1.506,1.03-.319.223-.627.462-.941.691.076-.05.152-.1.227-.151.468-.327.926-.668,1.4-.981.319-.21.659-.377.993-.56.572-.317,1.143-.638,1.721-.944.635-.334,1.274-.662,1.918-.974.624-.3,1.251-.592,1.889-.861.345-.144.712-.223,1.066-.338s.679-.233,1.02-.339a3.692,3.692,0,0,1,.478-.1c.376-.064.753-.143,1.133-.176s.761-.01,1.138-.026c.253-.012.505-.051.757-.072.047,0,.1.014.144.014.34,0,.68-.01,1.018-.011.2,0,.39,0,.584.014.291.02.58.066.869.08.329.016.656.008.983.012a.415.415,0,0,1,.09.006c.522.116,1.051.211,1.567.36a9.688,9.688,0,0,1,1.348.5,13.315,13.315,0,0,1,1.388.736c.429.262.837.568,1.246.865.351.256.7.513,1.03.8.307.271.576.588.869.872.16.156.352.276.508.438.216.223.414.468.618.706.142.165.288.326.42.5.219.293.438.585.634.9.316.507.627,1.017.912,1.543A4.7,4.7,0,0,1,189.939,119.4Zm.279,11.643-.2.324a.61.61,0,0,0,.187-.263Zm-3.1,22.544c.287.012.574.04.859.03.232-.008.462-.061.693-.088s.447-.047.672-.066a1.014,1.014,0,0,1,.279,0c.041.006.086.073.1.121.007.026-.046.088-.084.1a4.729,4.729,0,0,1-1.548.473,2.217,2.217,0,0,1-1.271-.09c-.136-.069-.237-.221-.37-.3a4.967,4.967,0,0,0-1.343.046,2.766,2.766,0,0,1-.5.032c-.423,0-.847-.033-1.269-.022-.441.012-.878.071-1.319.083-.27.006-.54-.056-.812-.06s-.566.022-.848.034a.4.4,0,0,1-.087,0,8.194,8.194,0,0,0-1.054-.147,5.29,5.29,0,0,0-.915.124c-.216.033-.432.067-.645.112-.255.054-.507.119-.761.175-.2.044-.407.088-.612.126-.327.058-.653.114-.982.172a4.216,4.216,0,0,1-.45.082c-.383.019-.766.01-1.148.03-.251.015-.5.07-.753.089-.052,0-.1,0-.155.006h-.092c-.114,0-.227-.007-.339-.015-.3-.028-.6-.078-.909-.1-.327-.023-.656-.026-.983-.034-.03,0-.06.013-.089.007-.4-.067-.792-.146-1.19-.2-.453-.059-.909-.092-1.365-.136a.271.271,0,0,1-.058-.007c-.514-.114-1.027-.236-1.542-.339a2.291,2.291,0,0,0-.534-.034c-.2.007-.44-.161-.442-.331a.453.453,0,0,1,.416-.472,11.617,11.617,0,0,1,1.442.084c.589.078,1.177.126,1.76.258a7.7,7.7,0,0,0,1.132.065c.293.02.583.078.875.092s.559-.012.837-.018c.245,0,.489-.009.733,0,.262.008.523.038.785.046a3.029,3.029,0,0,0,.406-.034c.235-.033.469-.079.706-.1.21-.018.423,0,.634-.013.229-.014.459-.046.689-.077.15-.021.3-.059.452-.076a9.751,9.751,0,0,0,1-.085,2.975,2.975,0,0,0,1.289-.378,4.117,4.117,0,0,1,1.5-.625c.4-.123.8-.248,1.2-.332.32-.066.652-.053.976-.1s.629-.155.947-.211c.421-.074.849-.11,1.268-.193.254-.05.5-.162.745-.235.371-.107.748-.191,1.114-.31.4-.133.8-.295,1.2-.444.231-.086.464-.168.695-.261.5-.2.993-.411,1.49-.616.372-.153.74-.327,1.118-.454a16.619,16.619,0,0,0,3.085-1.48,1.44,1.44,0,0,1,.444-.1c.015.038.03.074.044.114-.247.223-.479.469-.742.664a8.559,8.559,0,0,1-1,.632c-.426.228-.87.425-1.308.627a12.267,12.267,0,0,1-1.6.7c-.359.106-.675.3-1.017.427-.431.167-.874.291-1.311.445-.256.09-.5.211-.761.306-.467.172-.938.333-1.406.507-.411.151-.813.335-1.228.468-.284.094-.585.122-.876.187-.314.069-.624.151-.939.218a2.209,2.209,0,0,1-.437.04c-.251,0-.505-.039-.756-.028a7.357,7.357,0,0,0-.841.1.579.579,0,0,0,0,.193c.323.081.611.368.978.21a.16.16,0,0,1,.085,0,6.833,6.833,0,0,0,.869.077c.388-.012.775-.087,1.162-.118.215-.019.434.007.649-.012s.444-.067.666-.1c.152-.023.3-.052.456-.075.417-.061.837-.1,1.248-.184.4-.084,2.017-.448,2.432-.545.395-.086.777-.229,1.166-.335q.519-.133,1.044-.223c.079-.013.175.066.26.1a1.35,1.35,0,0,1-.185.126c-.464.215-.927.435-1.4.632a1.088,1.088,0,0,1-.456.075,2.7,2.7,0,0,0-1.616.572c-.115.078-.215.176-.323.264C187.084,153.5,187.1,153.547,187.119,153.591Zm17.1-43.218c-.138-.1-.279-.211-.422-.317a.836.836,0,0,0-.167-.116,8.849,8.849,0,0,1-1.431-1.162c-.167-.155-.672-.751-.787-.864-.246-.247-.508-.476-.749-.731s-.443-.523-.672-.773c-.152-.167-.326-.311-.487-.468-.249-.239-.495-.484-.745-.725a7.493,7.493,0,0,0-.668-.612c-.254-.191-2.378-1.216-2.745-1.477-.4-.283-.785-.591-1.212-.837a10.916,10.916,0,0,1-.991-.719.138.138,0,0,0-.025-.018c-.445-.243-.887-.493-1.336-.728a12.708,12.708,0,0,1-1.621-.856,3.15,3.15,0,0,0-1.06-.516c-.411-.111-3.876-.589-4.845-.745-.741-.119-1.4-.519-2.126-.594-.56-.058-1.057-.36-1.591-.382-.447-.017-.835-.267-1.248-.266s-.764-.226-1.136-.215a4.963,4.963,0,0,1-1.023-.193q-.91-.155-1.824-.27c-.5-.064-1-.113-1.5-.143a7.889,7.889,0,0,0-1.118,0,4.615,4.615,0,0,0-.755.18c-.035.008-.066.056-.1.054a3.553,3.553,0,0,1-1.783-.473c0-.032,0-.065,0-.1.19-.021.381-.037.572-.063.211-.03.422-.082.635-.1s.432-.009.645-.02c.3-.012.609-.045.913-.045.263,0,.528.043.791.046s.545-.018.817-.03a.705.705,0,0,1,.113-.015,5.86,5.86,0,0,0,.871.083,9.625,9.625,0,0,1,1.351.08c.585.049,1.158.167,1.734.221.47.045.893.291,1.339.3a14.645,14.645,0,0,1,1.964.532,34.232,34.232,0,0,1,3.686,1.162,6.911,6.911,0,0,0,1.191.107,1.33,1.33,0,0,0,.173.026c.4-.014.793-.022,1.188-.056a1.588,1.588,0,0,1,.869-.01c.328.15.679.243,1.005.4a7.812,7.812,0,0,1,1.495.79,6.905,6.905,0,0,0,1.042.558,4.979,4.979,0,0,1,1.1.636c.317.3.732.321,1.03.571.466.39,3.041,1.762,3.32,1.984.031.026.684.412.958.614.34.246,1.58,1.383,1.888,1.668.191.177,1.126,1.062,1.391,1.346.234.244.489.468.72.717a4.52,4.52,0,0,1,.516.64c.252.391.488.8.709,1.209a4.748,4.748,0,0,1,.235.634Zm-25.526,8.715c-.339.03-.672.045-1,.09a4.11,4.11,0,0,0-.73.157,9.1,9.1,0,0,0-1.012.395,2.645,2.645,0,0,0-1.139.872,6.5,6.5,0,0,1-.877.873c-.155.155-.307.311-.466.463-.2.193-.412.38-.615.576-.159.152-.307.316-.464.468s-.3.271-.448.412a3.185,3.185,0,0,0-.307.334c-.146.187-.272.392-.419.573s-.305.336-.46.5c-.117.122-.237.244-.359.358-.289.271-.574.545-.873.8s-.636.516-.964.762c-.344.259-.7.5-1.049.761-.315.236-.617.494-.93.734q-.52.4-1.048.778c-.46.331-.921.663-1.387.98-.305.209-.624.4-.937.589s-.612.373-.92.556c-.483.287-.967.569-1.45.857-.447.263-.887.534-1.335.793-.48.278-.964.553-1.452.817s-.987.511-1.482.762a8.494,8.494,0,0,1-1.683.764c-.408.106-3.127,1.14-3.525,1.3a1.122,1.122,0,0,1-.4.082,6.229,6.229,0,0,1-.753-.047c-.231-.028-.354-.186-.373-.456.341-.047.683-.081,1.019-.148s3-.971,3.326-1.07a9,9,0,0,0,1.119-.374c.58-.255,1.148-.548,1.709-.852.338-.182.656-.413.977-.628.472-.318.938-.644,1.413-.957.258-.171.532-.311.784-.488.4-.281.777-.59,1.17-.871.231-.164.485-.29.718-.452.407-.282.8-.583,1.208-.865.24-.167.5-.3.74-.469.4-.282.784-.587,1.183-.868.243-.175.508-.315.756-.484.524-.356,1.05-.709,1.561-1.087.421-.314.833-.645,1.226-1,.251-.225.456-.511.7-.753s.5-.45.732-.69.423-.494.646-.729c.242-.259.5-.5.751-.756.122-.122.234-.254.353-.379.341-.353.685-.7,1.024-1.056.23-.241.442-.5.683-.731s.523-.452.793-.667c.225-.176.458-.339.693-.5a6.3,6.3,0,0,1,1.246-.78,1.452,1.452,0,0,1,1.093-.106.446.446,0,0,0,.223,0,4.072,4.072,0,0,1,.945.5C178.642,118.828,178.654,118.917,178.689,119.087Zm23.229,1.8.078.252.063.211c-.019-.071-.04-.143-.061-.215S201.947,120.974,201.919,120.892Zm-16.587-18.869c.491.181.837.287,1.164.436.744.335,1.481.678,2.214,1.038a6.914,6.914,0,0,1,.917.54c.283.2.535.452.81.66.238.183.5.327.738.513.258.2.5.43.746.644.156.132.31.264.472.389.2.158.421.3.619.468s.377.373.572.552c.171.156.356.293.526.451.225.206.437.429.664.632.173.159.371.285.541.446s.3.342.456.5.358.3.52.471c.262.267.509.552.763.826.12.129.238.261.367.379a7.193,7.193,0,0,1,1,1.335,17.82,17.82,0,0,1,1.077,2.13c.415.694.693,1.459,1.065,2.171a20.322,20.322,0,0,1,.951,2.222c.243.636.426,1.3.642,1.946.09.271.21.53.3.8q.241.728.462,1.462c.114.375.23.751.319,1.134a7.185,7.185,0,0,1,.15.924c.009.08-.074.173-.116.26a1.366,1.366,0,0,1-.085-.188c-.12-.419-.228-.843-.355-1.259-.141-.459-.31-.906-.448-1.365l-.05-.17a8.232,8.232,0,0,1,.13.831c.007.082-.077.175-.118.26a1.342,1.342,0,0,1-.085-.189c-.121-.418-.227-.841-.355-1.258-.141-.458-.309-.905-.448-1.364s-.247-.936-.386-1.4c-.089-.3-.2-.592-.311-.884-.121-.31-.236-.623-.355-.933-.161-.24-.33-.477-.484-.721-.111-.177-.2-.369-.319-.544-.229-.352-.47-.7-.7-1.044-.2-.3-.379-.607-.583-.9-.177-.256-.374-.5-.562-.745-.166-.215-.337-.429-.5-.648-.106-.144-.191-.3-.306-.44-.331-.394-.663-.789-1.01-1.166-.257-.275-.548-.512-.812-.779-.142-.145-.251-.327-.392-.472-.156-.161-.331-.3-.5-.446-.239-.217-.472-.45-.721-.652-.233-.188-.495-.339-.734-.52-.267-.2-.523-.424-.782-.638a.349.349,0,0,0-.047-.04c-.345-.208-.694-.407-1.035-.625-.424-.273-.84-.558-1.261-.838a.687.687,0,0,0-.079-.042c-.782-.369-1.589-.687-2.339-1.118a19.342,19.342,0,0,0-3.449-1.419,9.207,9.207,0,0,0-1.965-.51c-.415-.047-.794-.2-1.194-.262s-.809-.066-1.214-.1c-.02,0-.039-.009-.06-.01-.387-.066-.773-.154-1.165-.191-.315-.029-.636.011-.953,0-.267-.008-.532-.049-.8-.058-.348-.011-.7,0-1.044,0-.212,0-.427,0-.64-.017-.251-.011-.5-.055-.753-.048-.235,0-.472.066-.708.083-.22.015-.444-.009-.665.007-.417.026-.833.078-1.251.108-.213.014-.432-.01-.643.012-.371.037-.737.1-1.106.146-.32.04-.644.063-.962.112-.335.05-.667.122-1,.182-.152.027-.307.044-.458.082q-.581.142-1.159.3c-.371.1-.741.209-1.11.32-.256.079-.505.189-.765.254-.283.07-.575.1-.861.161-.192.039-.378.123-.569.147-.093.014-.2-.063-.293-.1a1.065,1.065,0,0,1,.185-.112c.451-.161.9-.337,1.354-.468.489-.141.99-.223,1.478-.36.335-.1.65-.262.985-.363.275-.082.564-.1.845-.169.331-.082.656-.187.982-.285a3.01,3.01,0,0,1,.484-.14c.335-.039.672-.037,1.008-.074.371-.041.74-.119,1.111-.159.221-.021.447.018.671,0s.449-.067.674-.083.445-.011.667-.019c.3-.015.6-.048.893-.05.259,0,.521.04.784.039.284,0,.569-.038.854-.05.208-.007.416-.007.622,0,.284.019.565.073.849.078s.549-.025.824-.04a.245.245,0,0,1,.059,0c.348.05.7.113,1.046.146.366.034.733.038,1.1.058a.813.813,0,0,1,.118.014,20.11,20.11,0,0,0,2.024.5c.808.116,1.548.519,2.332.628.714.1,1.331.452,1.858.555.49.181.834.288,1.162.435.744.335,1.482.679,2.214,1.039a6.736,6.736,0,0,1,.918.539c.282.2.533.452.808.661.241.183.5.326.741.512.256.2.5.43.745.645.155.132.311.263.471.387.2.159.423.3.62.468s.378.375.572.553c.172.156.357.294.528.452.223.207.436.428.662.632.1.093.211.175.319.259-.328-.391-.656-.783-1-1.155-.256-.275-.546-.512-.81-.781-.143-.143-.252-.325-.394-.47-.155-.161-.331-.3-.5-.448-.241-.218-.472-.449-.722-.651-.233-.19-.494-.34-.733-.52-.268-.2-.523-.425-.783-.64-.017-.013-.03-.029-.047-.04-.345-.207-.695-.408-1.035-.624-.424-.273-.841-.558-1.262-.838a.406.406,0,0,0-.079-.044c-.781-.369-1.589-.686-2.34-1.118a19.453,19.453,0,0,0-3.446-1.418,9.2,9.2,0,0,0-1.967-.511c-.415-.046-.793-.2-1.194-.262s-.809-.066-1.215-.094c-.019,0-.038-.01-.057-.013-.389-.065-.776-.152-1.166-.189-.316-.03-.636.01-.953,0-.267-.006-.531-.049-.8-.058-.348-.012-.7,0-1.043,0-.214,0-.427,0-.64-.015-.251-.013-.5-.055-.753-.048-.235,0-.471.066-.708.081-.222.016-.445-.008-.666.009-.418.027-.833.078-1.251.107-.214.016-.431-.01-.644.013-.37.037-.737.1-1.106.147-.319.04-.642.062-.961.111-.335.051-.667.121-1,.183-.152.027-.307.042-.458.081q-.581.143-1.159.3c-.371.1-.742.207-1.11.321-.255.079-.505.187-.763.252-.283.071-.576.1-.863.162-.19.039-.376.122-.568.148-.093.013-.2-.064-.294-.1a1.083,1.083,0,0,1,.187-.112c.45-.16.9-.336,1.353-.468.488-.141.99-.222,1.477-.36.334-.1.652-.263.984-.363.277-.082.568-.1.847-.169.331-.081.654-.188.982-.285a2.853,2.853,0,0,1,.485-.141c.334-.039.672-.037,1.006-.073.371-.042.739-.121,1.111-.159.222-.021.448.018.671.006s.448-.066.672-.085.448-.01.669-.02c.3-.014.593-.046.892-.049.26,0,.521.041.782.039.286,0,.571-.038.856-.05a5.97,5.97,0,0,1,.622.006c.283.02.565.072.848.078s.549-.025.825-.04a.193.193,0,0,1,.057,0c.35.049.7.112,1.048.146s.733.039,1.1.058a.741.741,0,0,1,.117.014,19.663,19.663,0,0,0,2.023.5c.808.115,1.549.52,2.334.628C184.188,101.567,184.805,101.919,185.332,102.022Zm-7.584,34.752a2.646,2.646,0,0,1,.114.485.457.457,0,0,1-.1.321c-.265.211-.561.37-.827.58-.234.186-.44.409-.656.619-.243.235-.48.48-.733.709a10.91,10.91,0,0,1-.859.742c-.433.319-.889.6-1.327.907-.467.329-.909.693-1.386,1-.459.294-.944.54-1.423.793-.413.219-.827.442-1.254.62-.443.185-.905.318-1.359.473-.32.108-.64.22-.961.324-.255.081-.512.166-.773.227-.278.067-.561.1-.84.164-.19.041-.378.106-.568.142-.286.058-.578.094-.863.151-.178.033-.35.115-.526.13-.365.034-.733.027-1.1.058-.381.036-.757.115-1.136.145-.241.018-.485-.03-.728-.026-.264.006-.53.048-.793.056a4.952,4.952,0,0,1-.654-.029c-.341-.038-.684-.078-1.024-.139-.448-.082-.893-.179-1.339-.283a2.076,2.076,0,0,1-.377-.177c.119-.045.162-.074.2-.071.294.022.586.082.877.074.428-.01.855-.075,1.283-.1.231-.013.466.03.7.016s.427-.069.642-.093.411-.02.616-.042c.394-.04.786-.1,1.179-.139.327-.033.66-.037.984-.088.46-.074.914-.185,1.374-.271.411-.075.834-.109,1.238-.217a12.782,12.782,0,0,0,1.2-.442c.6-.231,1.2-.453,1.792-.7.347-.148.68-.339,1.016-.518.411-.22.823-.439,1.226-.672.532-.311,1.053-.638,1.584-.95.4-.235.806-.449,1.2-.688.3-.178.574-.379.865-.564.259-.163.532-.3.783-.482.392-.273.769-.572,1.158-.855.176-.125.378-.213.548-.347.237-.186.452-.4.683-.6C177.517,136.928,177.638,136.852,177.748,136.774Zm-21.486,9.206c.078-.05.1-.08.124-.077.376.055.751.136,1.13.166a7.782,7.782,0,0,0,.862-.033c.2-.006.408-.008.612,0,.263.014.528.06.791.055a6.871,6.871,0,0,0,.683-.1c.163-.02.327-.035.491-.04.375-.014.753.006,1.124-.038.452-.056.9-.172,1.35-.245.325-.053.656-.066.981-.118.263-.042.521-.115.78-.178.173-.042.344-.092.516-.137.365-.092.733-.179,1.1-.275.293-.078.585-.16.874-.251.2-.062.39-.14.584-.21.464-.169.933-.322,1.39-.511.341-.139.668-.317,1-.488.488-.257.973-.527,1.462-.788s.988-.488,1.459-.776c.53-.326,1.04-.688,1.544-1.057.576-.423,1.133-.876,1.7-1.307.459-.35.942-.664,1.384-1.036.334-.283.616-.636.93-.949.237-.237.509-.44.725-.7a2.289,2.289,0,0,0,.459-.773,1.15,1.15,0,0,1,.947-.9c.108-.022.184-.04.243-.05.023-.113.041-.207.067-.294.09-.306.172-.616.287-.912a21.8,21.8,0,0,1,1.125-2.791,22.725,22.725,0,0,0,1.143-3.144,16.5,16.5,0,0,0,.556-1.828,8.491,8.491,0,0,0,.268-1.555,4.1,4.1,0,0,0-.177-1.061c-.107-.491-.211-.982-.355-1.459a13.878,13.878,0,0,0-1.145-2.792,13.1,13.1,0,0,0-1.264-1.747,3.7,3.7,0,0,0-.649-.516c-.277-.223-.55-.45-.826-.674a.273.273,0,0,0-.022-.022,10.187,10.187,0,0,0-2.172-1.054c-.038-.008-.082.022-.2.056.251.2.456.372.66.542.265.219.528.441.795.661a.921.921,0,0,0,.1.073,10,10,0,0,1,.9.586c.38.3.725.656,1.094.977a5.439,5.439,0,0,1,.6.482,2.945,2.945,0,0,1,.963,1.7,5.694,5.694,0,0,0,.315,1.082c.076.271.146.544.2.819.094.464.189.929.255,1.4.076.537.148,1.077.178,1.619a8.245,8.245,0,0,1-.857,3.737c-.379.869-.586,1.808-1.01,2.635-.227.444-.38.912-.6,1.351-.17.34-.426.628-.628.951-.179.286-.323.6-.512.882-.163.245-.367.46-.55.693-.143.185-.263.394-.419.561a13.064,13.064,0,0,1-.938.911c-.064.054-.236,0-.336-.053a.282.282,0,0,1-.074-.245,2.291,2.291,0,0,1,.5-1.11,6.753,6.753,0,0,0,.791-1.1c.179-.25.373-.488.559-.732a.54.54,0,0,0,.05-.084c.19-.362.363-.736.569-1.087s.472-.7.687-1.061a10.8,10.8,0,0,0,.544-1.058,12.4,12.4,0,0,0,.723-1.744,7.82,7.82,0,0,0,.13-1.482c0-.022.006-.043.009-.065.058-.425.138-.847.173-1.273.026-.331,0-.668,0-1,0-.066.014-.131.016-.2a13.377,13.377,0,0,0,.041-1.5,9.684,9.684,0,0,0-.271-1.509,11.951,11.951,0,0,0-.487-1.628,3.27,3.27,0,0,0-.582-.8c-.254-.3-.516-.6-.794-.872-.183-.181-.4-.316-.6-.484-.212-.185-.415-.386-.618-.581-.022-.018-.034-.054-.057-.068-.256-.175-.52-.339-.767-.528a7.9,7.9,0,0,0-.808-.647,1.376,1.376,0,0,0-1.044-.3,4.965,4.965,0,0,1-.756,0c-.4.034-.792.09-1.182.161-.52.1-1.036.207-1.548.33a3.338,3.338,0,0,0-.46.213,12.23,12.23,0,0,0-1.379.606,10.349,10.349,0,0,0-1.135.889c-.271.218-.544.433-.813.654-.249.207-.5.415-.745.627-.21.181-.414.37-.623.551-.233.2-.473.4-.7.611-.316.293-.62.6-.929.9-.167.162-.328.328-.5.485-.213.2-.435.387-.648.584-.143.132-.279.273-.417.411-.325.319-.647.644-.973.96-.126.12-.277.211-.391.339-.334.372-.639.774-.983,1.133a5.191,5.191,0,0,1-1.59,1.2,1.042,1.042,0,0,0-.391.32,3.461,3.461,0,0,0-.437.713,1.476,1.476,0,0,1-.52.608c-.391.292-.76.619-1.157.9-.321.227-.671.4-1.007.606-.528.321-1.044.67-1.582.97-.66.37-1.337.706-2.008,1.054a5.149,5.149,0,0,1-.692.343c-.352.118-.725.171-1.078.287a1.261,1.261,0,0,1-.975.022,1.147,1.147,0,0,1-.2-.156c.075-.022.151-.041.224-.066.442-.155.882-.31,1.322-.467.528-.187,1.066-.339,1.574-.575a14.2,14.2,0,0,0,1.38-.809c.177-.109.34-.238.509-.362a5.427,5.427,0,0,0,.451-.339c.323-.287.636-.583.953-.877.331-.31.654-.625.99-.928.319-.288.657-.552.97-.846s.616-.657.95-.947c.444-.385.456-.974.647-1.478a1.117,1.117,0,0,1,.489-.607,6.333,6.333,0,0,0,.692-.606q.4-.346.823-.672c.221-.171.457-.318.677-.489.188-.146.363-.313.544-.467.263-.227.528-.45.793-.676.348-.3.694-.593,1.042-.889s.7-.59,1.043-.889c.465-.407.911-.846,1.4-1.222.43-.331.9-.59,1.356-.882.258-.163.5-.347.77-.491.331-.179.672-.339,1.017-.488.509-.222,1.018-.449,1.539-.636a7.658,7.658,0,0,1,.877-.179c.252-.056.5-.133.75-.2a4.1,4.1,0,0,1,.508-.134c.416-.061.836-.124,1.255-.147.279-.017.56.045.842.05s.573-.017.861-.026a.291.291,0,0,1,.091,0,15.737,15.737,0,0,1,1.8.468,3.834,3.834,0,0,1,.87.659,4.118,4.118,0,0,0,.592.458,2.052,2.052,0,0,1,.765.688c.216.322.5.589.692.929.41.731.789,1.483,1.159,2.244.3.611.579,1.237.827,1.873.187.48.312.988.454,1.487.106.364.193.736.292,1.1.01.037.058.071.055.1-.018.308-.046.614-.072.921a7.173,7.173,0,0,0,.531,1.5c.16.605-1.036,5.493-1.266,6.364-.08.3-.319.434-.505.3a.5.5,0,0,1-.21-.328c0-.466.592-4.449.668-4.935a36.857,36.857,0,0,0-1.788,4.591,3.577,3.577,0,0,1-.587.858,6.166,6.166,0,0,1-.4.53,6.856,6.856,0,0,1-.621.627l.1.062c-.145.206-.28.415-.437.605s-.322.351-.487.523c-.24.244-.489.48-.724.733s-.461.523-.695.784c-.268.3-.54.6-.807.9-.231.261-.442.543-.689.783a7.865,7.865,0,0,1-.775.631c-.219.164-.451.31-.678.463-.453.3-.909.6-1.359.913-.519.358-1.023.742-1.549,1.085-.468.306-.96.572-1.442.855-.443.262-.881.535-1.331.776-.375.2-.763.375-1.153.543-.418.179-.842.352-1.27.5-.343.115-.7.182-1.047.275-.411.111-.817.246-1.231.335s-.837.12-1.254.193c-.315.057-.624.164-.941.207-.354.047-.714.038-1.07.07-.226.018-.448.078-.675.1s-.428.006-.641.012c-.316.008-.634.038-.949.026s-.609-.071-.915-.089c-.344-.021-.688-.019-1.033-.026a.5.5,0,0,1-.059,0q-.554-.09-1.107-.183c-.349-.061-.7-.119-1.047-.19A1.326,1.326,0,0,1,156.262,145.98Zm46.368-42.226c-.258-.018-.44-.023-.541-.245a.281.281,0,0,0-.066-.1c-.236-.167-.484-.319-.709-.5s-.422-.387-.634-.579c-.038-.034-.084-.056-.124-.086l-.975-.739c-.015-.014-.033-.025-.048-.036-.323-.2-.656-.386-.969-.6s-.586-.45-.877-.68a.3.3,0,0,0-.049-.035c-.4-.226-.808-.437-1.2-.681-.412-.257-.806-.545-1.209-.82a.2.2,0,0,0-.026-.014c-.436-.235-.865-.477-1.3-.7A12.914,12.914,0,0,1,192.085,97c-.456-.336-1-.395-1.428-.718a14.9,14.9,0,0,0-2.137-.989,57.705,57.705,0,0,0-6.5-2.592c-.65-.263-1.315-.481-1.97-.725a2.255,2.255,0,0,1-.3-.167c.054-.052.07-.078.082-.078a12.257,12.257,0,0,0,1.371.243c.532.035,1.027.3,1.536.33a19.936,19.936,0,0,1,2.046.573,10.308,10.308,0,0,1,2.959.979c.925.464,1.919.741,2.811,1.25a13.879,13.879,0,0,1,1.485.741c.374.282.827.356,1.166.633a8.677,8.677,0,0,0,1.114.61c.353.216.68.483,1.02.729a.069.069,0,0,0,.026.014c.42.235.853.449,1.258.711.3.195.575.45.862.678a.609.609,0,0,0,.077.046c.286.183.584.35.854.556.218.166.4.39.6.568s.442.32.651.5.4.379.6.573c.13.123.252.26.385.379.3.262.608.5.893.777C201.9,102.96,202.23,103.331,202.63,103.754Zm-2.4,7.974c-.279-.122-.584-.11-.813-.439a5.828,5.828,0,0,0-.84-.782c-.156-.149-.291-.323-.441-.48s-.315-.307-.471-.462c-.179-.18-.355-.36-.533-.542-.127-.131-.25-.269-.388-.389-.317-.276-.656-.531-.964-.818-.288-.271-.543-.584-.827-.861-.174-.17-.382-.291-.56-.455-.207-.19-.392-.407-.6-.6-.169-.156-.363-.28-.536-.432-.226-.2-.443-.411-.669-.613-.15-.134-.3-.265-.464-.385-.221-.168-.456-.321-.676-.491-.279-.216-.547-.446-.817-.671-.017-.012-.03-.03-.046-.04-.307-.191-.616-.371-.918-.572-.392-.259-.767-.558-1.171-.79-.323-.184-.7-.251-1.018-.445a24.285,24.285,0,0,0-4.454-1.8,7.129,7.129,0,0,0-1.846-.466c-.474-.04-.892-.239-1.34-.311-.411-.068-.829-.076-1.246-.111a.282.282,0,0,1-.058-.012c-.416-.075-.829-.175-1.247-.221-.325-.036-.653,0-.981-.008-.214,0-.431,0-.643-.021-.306-.026-.608-.082-.913-.094s-.593.007-.887.014a.822.822,0,0,1-.089,0c-.51-.039-1.021-.094-1.534-.115-.271-.01-.541.055-.811.055s-.544-.054-.817-.059-.569.02-.854.029c-.047,0-.094-.008-.143-.006-.343,0-.686.011-1.03,0a.478.478,0,0,1-.314-.159,1.439,1.439,0,0,1,.322-.145c.19-.036.382-.045.574-.062.164-.012.331-.01.494-.03.37-.05.737-.125,1.107-.16.231-.022.469.021.7.014.262-.009.525-.045.788-.061a5.763,5.763,0,0,1,.588-.009c.283.016.564.062.849.074s.571-.008.858-.014a.536.536,0,0,1,.087-.008c.349.049.7.115,1.047.146s.709.026,1.065.037c.019,0,.039,0,.059.006.406.071.809.157,1.216.214.471.065.944.106,1.417.159a.344.344,0,0,1,.058.008c.475.1.953.192,1.427.305.656.156,1.3.385,1.967.483a19.83,19.83,0,0,1,4.253,1.438,4.9,4.9,0,0,1,.992.713.588.588,0,0,0,.05.032c.363.215.737.411,1.089.644.309.208.593.46.888.69a.53.53,0,0,0,.051.032c.334.2.676.387,1,.611.28.2.532.435.8.652a.97.97,0,0,0,.1.064c.295.184.6.352.883.56.254.187.476.427.718.632a6.024,6.024,0,0,0,.522.4c.264.186.544.347.8.544a6.3,6.3,0,0,1,.463.462c.167.163.344.308.506.474.306.31.6.638.906.946.249.25.52.473.764.728s.466.524.7.782c.136.15.282.3.427.437.347.346.707.676,1.04,1.035a5.114,5.114,0,0,1,.433.629C200.265,111.673,200.246,111.7,200.229,111.727Zm-12.173-11.548c.017-.057.046-.146.08-.257a15.511,15.511,0,0,1,2.037.789c.279.15.574.295.847.468.377.235.739.5,1.108.756a.415.415,0,0,0,.047.038c.382.22.773.426,1.144.67.287.187.546.423.817.637.025.019.042.05.068.061a4.033,4.033,0,0,1,1.058.8c.2.2.477.309.671.512.291.305.538.66.809.989.133.161.28.312.423.465.23.246.463.484.686.733s.456.525.684.789c.24.28.477.56.716.841.1.115.193.232.294.343a12.056,12.056,0,0,1,.873.972c.347.476.644.994.961,1.5.3.478.608.953.9,1.44.2.339.371.7.552,1.049.21.407.422.815.627,1.225s.419.839.622,1.261a.17.17,0,0,1-.022.146.124.124,0,0,1-.129,0,3.531,3.531,0,0,1-.3-.383c-.279-.425-.56-.857-.831-1.29-.113-.179-.2-.382-.31-.56-.226-.357-.48-.692-.7-1.055-.275-.465-.513-.954-.787-1.421a9.424,9.424,0,0,1-.57-.91,7.748,7.748,0,0,0-.885-1.291,8.215,8.215,0,0,0-.705-.733c-.222-.251-.411-.534-.63-.788-.13-.151-.293-.269-.431-.414s-.279-.323-.422-.483c-.122-.138-.248-.269-.376-.4-.313-.32-.623-.648-.946-.956-.178-.171-.39-.3-.574-.464-.153-.139-.282-.307-.427-.456a6.033,6.033,0,0,0-.456-.439c-.208-.171-.441-.311-.649-.483-.233-.192-.452-.4-.679-.608a.205.205,0,0,0-.045-.039c-.324-.2-.652-.388-.972-.6-.4-.26-.788-.549-1.192-.8-.215-.13-.46-.2-.685-.307-.531-.263-1.062-.527-1.581-.813A7.888,7.888,0,0,1,188.057,100.179Zm-3.075-8.873c.037-.058.05-.091.058-.093h0a10.145,10.145,0,0,0,1.108.146c.673.012,1.269.395,1.911.46a5.844,5.844,0,0,1,2.158.715,14.786,14.786,0,0,1,1.658.8c.367.26.8.357,1.132.631a7.347,7.347,0,0,0,.8.482c.326.208.625.466.934.7a.439.439,0,0,0,.052.03c.353.208.715.4,1.052.63.271.186.5.439.762.643.229.178.484.318.711.5s.444.393.667.587c.181.159.366.311.548.465s.39.331.584.5c-.013.032-.027.064-.038.1a4.091,4.091,0,0,1-.44-.2c-.1-.061-.179-.172-.279-.242-.409-.281-.818-.555-1.227-.831a.308.308,0,0,0-.052-.034c-.431-.238-.869-.46-1.29-.718s-.795-.532-1.192-.8a.267.267,0,0,0-.05-.033c-.5-.262-.992-.527-1.492-.786a10.215,10.215,0,0,1-1.59-.842,12,12,0,0,0-1.323-.663,31.807,31.807,0,0,0-4.922-2.013C185.145,91.4,185.068,91.35,184.982,91.306Zm3.783,59.9c.539-.244,1.079-.487,1.616-.733.429-.2.847-.425,1.283-.605.527-.216,1.068-.394,1.6-.591.109-.039.212-.1.323-.129a3.019,3.019,0,0,1,.332-.05l.055.125a2.3,2.3,0,0,1-.406.382c-.586.326-1.173.653-1.782.924a8.728,8.728,0,0,1-1.084.3c-.332.1-.655.235-.989.329-.305.085-.618.137-.929.2C188.78,151.311,188.774,151.258,188.765,151.206Zm6.758-5.972a1.762,1.762,0,0,1-.166.5,2.841,2.841,0,0,1-.444.414c-.185.171-.359.356-.556.51a.476.476,0,0,1-.355.066C194.347,146.05,194.985,145.741,195.523,145.233Zm-21.5-40.541.007.014c.009-.05.018-.1.026-.147.3.076.622-.187.907.08.018-.057.031-.161.054-.162.2-.014.4-.006.605-.016.257-.016.513-.042.77-.062a.44.44,0,0,1,.086-.006c.291.029.582.074.873.083.263.009.527-.008.79-.018-.291-.054-.581-.11-.876-.137-.314-.03-.635.01-.953,0-.266-.007-.531-.05-.8-.058-.348-.01-.7,0-1.043,0-.214,0-.427,0-.64-.015-.252-.012-.5-.055-.753-.049s-.471.067-.708.082c-.222.016-.444-.008-.665.008-.419.026-.835.078-1.253.106-.213.015-.43-.01-.644.011-.368.039-.737.1-1.1.149-.319.04-.644.063-.961.112-.335.05-.668.121-1,.181-.152.029-.307.044-.457.082-.387.094-.776.194-1.16.3s-.742.21-1.11.322c-.257.078-.505.187-.765.254-.283.069-.575.1-.861.16-.193.04-.377.122-.57.147-.094.013-.195-.062-.293-.1a1.043,1.043,0,0,1,.187-.113c.45-.161.9-.336,1.354-.468.487-.141.988-.223,1.477-.361.333-.094.65-.262.984-.362.275-.082.567-.1.847-.169.328-.081.654-.188.981-.285a3.071,3.071,0,0,1,.485-.142c.334-.038.671-.035,1.007-.073.372-.04.739-.12,1.11-.158.222-.022.448.018.67,0s.451-.066.675-.084.445-.009.668-.019c.3-.015.594-.047.891-.049.26,0,.521.042.783.038.286,0,.57-.038.854-.05.207-.007.416-.008.623,0,.284.019.566.072.848.078s.551-.026.824-.039a.179.179,0,0,1,.058,0c.351.05.7.112,1.047.145.364.034.733.039,1.1.058a.577.577,0,0,1,.118.014,19.636,19.636,0,0,0,2.024.5c.807.114,1.548.519,2.333.628.713.1,1.331.451,1.857.554.49.181.836.287,1.165.435q1.114.5,2.214,1.038a6.71,6.71,0,0,1,.917.541c.283.2.533.449.809.66.239.182.5.327.739.512.256.2.5.431.746.645.154.132.31.263.47.387.2.159.423.3.62.468s.377.374.572.555c.171.155.357.291.526.449.226.208.436.431.664.633.175.159.371.284.54.445s.3.343.456.5.359.3.523.472c.261.268.507.551.761.825.12.13.239.263.367.38a7.138,7.138,0,0,1,1,1.335,25.183,25.183,0,0,1,1.216,2.412,20.241,20.241,0,0,1,.952,2.222c.243.636.426,1.3.64,1.945.094.271.211.531.3.8.161.483.314.972.462,1.461.114.376.229.753.319,1.136a7.869,7.869,0,0,1,.151.925c.007.079-.076.173-.118.259a1.567,1.567,0,0,1-.085-.187c-.119-.422-.228-.845-.355-1.262-.141-.457-.309-.906-.448-1.364s-.249-.935-.387-1.4c-.09-.3-.2-.593-.313-.884-.272-.7-.518-1.419-.846-2.091a15.568,15.568,0,0,0-.917-1.455c-.11-.178-.2-.367-.319-.543-.231-.352-.47-.7-.7-1.046-.2-.3-.38-.607-.584-.9-.178-.256-.374-.5-.564-.743-.165-.217-.336-.428-.5-.648-.107-.143-.193-.3-.306-.439-.331-.394-.663-.789-1.012-1.164-.256-.275-.547-.513-.811-.781-.142-.143-.252-.328-.392-.473-.155-.16-.331-.3-.5-.446-.24-.217-.472-.45-.722-.651-.233-.189-.495-.338-.733-.521-.267-.2-.523-.424-.785-.639a.541.541,0,0,0-.046-.04c-.345-.206-.694-.407-1.035-.624-.424-.273-.841-.559-1.262-.838a.43.43,0,0,0-.078-.043c-.781-.37-1.589-.685-2.34-1.118a19.325,19.325,0,0,0-3.446-1.419,9.289,9.289,0,0,0-1.967-.51c-.415-.046-.793-.2-1.194-.262a8.114,8.114,0,0,0-.861-.074c.2.033.394.066.591.106.505.1,1.007.217,1.512.322a7.483,7.483,0,0,1,.964.2c.9.312,1.791.639,2.67,1a7.427,7.427,0,0,1,1.578.817,7.529,7.529,0,0,0,1.018.548c.363.2.72.405,1.072.618.235.138.465.283.686.442.307.223.6.461.9.692.033.023.068.045.1.066.319.2.646.375.952.593a15.422,15.422,0,0,1,1.993,1.757c.367.417.67.894,1.017,1.331.271.342.574.651.842,1,.167.214.282.474.44.7.17.239.368.453.542.688.219.3.426.6.635.911.231.338.462.676.68,1.021.159.253.308.516.455.78.327.594.67,1.177.969,1.787.239.491.433,1.01.628,1.526.167.448.324.9.453,1.359.082.3.1.619.165.922.062.278.163.546.227.824.068.3.107.608.163.91.051.287.108.575.163.862.039.21.077.422.111.632.058.358.114.718.166,1.077.048.325.088.652.13.979.052.395.107.79.153,1.185.022.207.022.417.033.625.011.167.022.334.036.5.034.425.075.847.106,1.273a4.619,4.619,0,0,1,.016.631c-.021.338-.059.673-.1,1.009q-.1.879-.208,1.752c0,.017-.025.029-.106.115-.041-.23-.079-.405-.1-.584-.05-.408-.1-.819-.134-1.23-.018-.223,0-.45-.016-.674-.018-.26-.053-.522-.075-.782-.019-.193-.026-.386-.042-.579-.038-.46-.086-.924-.116-1.386-.016-.235.01-.471-.006-.7s-.065-.46-.1-.692c-.024-.166-.05-.331-.059-.5-.022-.391-.02-.786-.059-1.175-.034-.363-.119-.719-.172-1.081-.046-.32-.056-.645-.116-.961a7.337,7.337,0,0,0-.233-.824c-.133-.422-.252-.849-.416-1.255-.219-.543-.484-1.065-.71-1.606a7.3,7.3,0,0,1-.247-.769,11.152,11.152,0,0,0-.782-2.08c-.226-.431-.394-.9-.609-1.338a8.676,8.676,0,0,0-.5-.876c-.3-.461-.6-.92-.916-1.363-.291-.405-.612-.79-.92-1.181-.369-.471-.725-.958-1.114-1.4-.329-.373-.706-.694-1.052-1.05-.276-.283-.527-.6-.811-.869-.2-.194-.456-.327-.672-.506s-.4-.379-.6-.568c-.014-.014-.025-.034-.041-.044-.277-.181-.559-.349-.829-.539-.341-.242-.669-.5-1.006-.747-.015-.011-.034-.019-.05-.03a13.172,13.172,0,0,1-1.488-.795c-.629-.439-1.369-.586-2-.973a18.371,18.371,0,0,0-3.994-1.576c-.46-.151-.963-.257-1.449-.373a9.539,9.539,0,0,0-1.054-.179c-.459-.053-.919-.1-1.379-.108s-.9.051-1.342.056a1.582,1.582,0,0,1-.428-.118c-.023.046-.045.137-.064.135C174.6,104.747,174.31,104.719,174.019,104.692Zm-17.986,41.395c-.153-.056-.306-.114-.458-.168.006-.02.011-.04.018-.06l.457.171C156.044,146.048,156.038,146.068,156.033,146.087Zm44.877-41.865c.155.065.307.131.46.2-.319.11-.452.028-.451-.2l-.556-.361a.689.689,0,0,0-.072-.058c-.325-.2-.659-.383-.976-.6s-.638-.477-.957-.716a.688.688,0,0,0-.106-.058c-.247-.157-.489-.325-.745-.466-.464-.262-.931-.509-1.4-.756a12.68,12.68,0,0,1-1.705-.893c-.364-.267-5.767-2.942-6.047-3.164-.015-.012-3.579-1.818-4.947-2.261a8.456,8.456,0,0,0-1.853-.458,9.5,9.5,0,0,1-1.223-.279,4.277,4.277,0,0,0-1.107-.184c-.331.023-.617-.167-.907-.139a3.376,3.376,0,0,1-.908-.146c-.555-.082-1.11-.15-1.667-.208a5.793,5.793,0,0,0-.635,0c-.007-.044-.013-.086-.021-.127a1.321,1.321,0,0,1,.308-.17,4.952,4.952,0,0,1,.548-.057c.263-.026.525-.066.789-.081.217-.011.436.007.655.011a5.446,5.446,0,0,1,.56.017c.378.051.754.13,1.134.183.51.074,1.023.133,1.534.2a.855.855,0,0,1,.117.027c1.042.3,2.081.613,3.125.917a7.242,7.242,0,0,1,1.611.466c1.165.663,2.475.912,3.629,1.555.671.371,1.42.529,2.047.95.484.327,1.054.431,1.5.767a7.985,7.985,0,0,0,1.074.571,3.479,3.479,0,0,1,.948.579c.235.255.572.259.767.477.284.318.749.307.966.7.01.017.032.023.049.034.364.215.737.407,1.086.645a7.235,7.235,0,0,1,.672.581.854.854,0,0,0,.094.078,7.8,7.8,0,0,1,.793.54c.311.266.58.584.877.869.168.159.358.3.533.446.15.13.3.262.441.405C200.963,104.076,200.924,104.164,200.91,104.222Zm-35.635,31.525a9.044,9.044,0,0,1-4.817,1.582c-3.038.262-5.718.369-5.967-.1-.271-.508,2.584.967,6.853-.721a30.681,30.681,0,0,0,4.73-2.193,58.983,58.983,0,0,1,6.1-3.093c2.908-1.547,5.546-8.9,5.746-8.52.284.527-.219,6.418-7.316,10.478-.712.408-2,1.125-2.737,1.6C167.413,135.079,165.744,135.452,165.275,135.748Zm7.1-22.743c-3.973.774-6.6,3.671-9.27,5.468-5.983,4.028-9.447,7.845-9.521,7.5a13.942,13.942,0,0,1,3.34-3.976c3.844-3.259,9.816-8.1,17.9-10,3.534-.826,6.12.592,8.177,1.666a11.272,11.272,0,0,1,3.133,2.39,10.269,10.269,0,0,1,2.108,4.641c.712,2.7,1.323,7.215.13,10.571a11.188,11.188,0,0,1-3.283,5.44c-1.966,1.94-5.4,6.452-7.347,7.77a9.412,9.412,0,0,1-4.6,1.781c.026.116,2.085-.256,4.811-2.643a32.8,32.8,0,0,0,6.588-7.755c2.515-4.412,5.288-6.358,4.279-10.006-.349-1.268-.608-5.4-1.677-7.051a13.035,13.035,0,0,0-2.366-3.254C182.069,113.164,177.488,112.01,172.374,113ZM38.056,131.031c0-5.324,3.541-8.769,8.383-8.769a11.486,11.486,0,0,1,4.722.988l-.265,2.408a12.018,12.018,0,0,0-4.457-1.011c-3.662,0-5.589,2.77-5.589,6.384s1.927,6.384,5.637,6.384a11.982,11.982,0,0,0,4.409-.988l.265,2.409a12.069,12.069,0,0,1-4.7.963C41.6,139.8,38.056,136.354,38.056,131.031Zm15.609,1.252V122.6h2.553v8.6c0,3.253.7,6.216,4.433,6.216s4.433-2.963,4.433-6.216v-8.6h2.553v9.684c0,4.6-2.24,7.516-6.986,7.516S53.665,136.884,53.665,132.283Zm16.91,6.384.314-2.962a8.607,8.607,0,0,0,5.275,1.71c1.976,0,3.686-.6,3.686-2.337,0-1.832-1.927-2.506-4.216-3.253-2.65-.866-5.324-1.71-5.324-4.625,0-2.144,1.47-4.938,6.071-4.938a11.771,11.771,0,0,1,5.324,1.2l-.265,2.674a10.682,10.682,0,0,0-4.866-1.519c-1.59,0-3.542.6-3.542,2.241,0,1.494,1.59,2.1,3.566,2.7,2.843.868,6.071,1.783,6.071,5.468,0,1.831-.771,4.77-6.553,4.77A12.1,12.1,0,0,1,70.575,138.666Zm20.717-13.682v14.477H88.714V124.984H83.872V122.6H96.158v2.385ZM97,131.031c0-5.324,3.493-8.769,8.311-8.769s8.311,3.445,8.311,8.769-3.493,8.768-8.311,8.768S97,136.354,97,131.031Zm2.794,0c0,3.613,1.856,6.384,5.517,6.384s5.516-2.771,5.516-6.384-1.854-6.384-5.516-6.384S99.795,127.417,99.795,131.031Zm30.5,8.431-1.542-12.237-4.48,8.408-4.553-8.408-1.542,12.237H115.5l2.288-16.862h2.144l4.312,8.118,4.288-8.118H130.7l2.288,16.862Zm5.589,0V122.6h2.578v16.862Zm8.913-2.385h7.54v2.385H140.578l8.6-14.477h-7.516V122.6h11.526a5.379,5.379,0,0,0,.441-.343c.227-.2.423-.442.64-.654.175-.17.357-.325.538-.485.252-.224.5-.448.76-.668.323-.279.659-.544.97-.836s.6-.638.917-.938.636-.538.937-.827c.244-.235.457-.509.7-.753.288-.3.588-.579.881-.865.156-.151.311-.3.468-.452.2-.19.405-.379.613-.566.233-.206.468-.415.712-.608.171-.138.361-.248.542-.375.466-.327.926-.668,1.4-.979.318-.21.66-.379.993-.562.573-.316,1.142-.636,1.72-.942.636-.334,1.275-.662,1.919-.974.623-.3,1.252-.593,1.889-.861.344-.145.711-.223,1.067-.339.339-.109.678-.231,1.019-.336a3.572,3.572,0,0,1,.476-.1c.378-.063.755-.143,1.134-.175s.76-.01,1.138-.026c.253-.012.505-.051.757-.073.047,0,.1.014.144.014.339,0,.68-.01,1.018-.011.2,0,.39,0,.584.013.291.022.58.067.871.082.328.016.656.008.983.012a.366.366,0,0,1,.089.006c.522.115,1.05.209,1.567.359a10.024,10.024,0,0,1,1.35.5,13.306,13.306,0,0,1,1.387.737c.429.261.837.567,1.246.865.35.256.7.513,1.03.8.305.269.576.587.87.871.16.156.352.275.508.436.216.226.413.471.616.707.143.165.291.327.42.5.22.291.441.584.634.9.318.506.628,1.016.914,1.545a7.056,7.056,0,0,1,.363.909c.149.4.306.8.434,1.213.1.323.155.66.238.993.089.355.2.7.276,1.063.051.237.052.486.081.728s.074.481.1.722c.022.218.019.435.035.652.02.278.047.553.068.829a4.774,4.774,0,0,1,.036.534c-.006.294-.048.588-.046.881s.047.574.058.861c.008.237-.008.475-.01.712,0,.192.014.383,0,.574-.025.336-.082.671-.094,1.007s.012.644.018.969a.5.5,0,0,1-.006.1c-.055.4-.125.8-.16,1.2-.038.437-.047.875-.068,1.313a.13.13,0,0,1-.007.03,13.261,13.261,0,0,1-.538,2.425,16.583,16.583,0,0,1-.8,2.675,3.692,3.692,0,0,1-.551.746c-.129.177-.252.359-.367.547-.167.275-.318.568-.494.839s-.363.505-.547.757a.582.582,0,0,0-.072.1,6.893,6.893,0,0,0-.764,1.768c-.071.476-.425.708-.739.971-.24.2-.476.406-.72.6-.149.117-.309.219-.462.331-.328.246-.651.5-.981.739a9.3,9.3,0,0,0-1.15.826,7.064,7.064,0,0,1-1.473.941.586.586,0,0,1-.148.042c-.007-.054-.04-.129-.018-.163a7.928,7.928,0,0,1,.477-.693,3.63,3.63,0,0,1,.427-.4c.291-.255.584-.512.879-.757s.624-.5.937-.755c.26-.207.516-.42.782-.621.226-.171.462-.323.688-.49s.448-.334.664-.512a.639.639,0,0,0,.128-.207l.094-.175c-.149.126-.3.252-.452.374s-.31.219-.461.332c-.327.245-.651.5-.981.739a9.694,9.694,0,0,0-1.15.825,7,7,0,0,1-1.474.942.6.6,0,0,1-.146.041c-.006-.054-.04-.129-.018-.163.1-.151.192-.3.294-.448-.119.1-.239.2-.36.294-.274.213-.551.421-.825.636a2.112,2.112,0,0,0-.355.3c-.154.185-.282.4-.424.6a2.418,2.418,0,0,1-.921.913,7.664,7.664,0,0,1-1.048.4c-.407.106-.829.13-1.24.218-.264.056-.515.186-.778.244-.41.087-.828.138-1.24.216-.315.06-.627.14-.939.2a2.511,2.511,0,0,1-.46.07c-.39.014-.78-.01-1.168.014s-.757.1-1.136.139c-.326.038-.653.049-.976.1-.262.046-.516.139-.775.21s-.537.145-.805.216c-.218.059-.45.1-.51.44.34.07.62.31,1.01.2a3.875,3.875,0,0,1,.785.021,5.215,5.215,0,0,0,.638-.11c.154-.026.307-.039.46-.062.546-.078,1.092-.153,1.636-.241.38-.061.761-.13,1.137-.215.271-.063.535-.167.8-.24a3.007,3.007,0,0,1,.43-.07c.457-.053.917-.086,1.372-.156s.9-.175,1.352-.269a13.217,13.217,0,0,0,1.489-.335,3.632,3.632,0,0,0,.836-.537,2.951,2.951,0,0,1,1.2-.564,13.613,13.613,0,0,0,1.425-.368,6.6,6.6,0,0,0,1.455-.845,6.225,6.225,0,0,0,1.214-1.21c.226-.247.394-.562.63-.792a7.121,7.121,0,0,1,1.034-.84,1.247,1.247,0,0,1,.592-.086c.147-.01.294.01.471.016.028.072.07.182.114.29-.235.187-.468.375-.7.56-.4.313-.814.611-1.21.935-.293.244-.572.516-.847.789-.709.709-4.188,1.975-4.512,2.072a.544.544,0,0,0-.335.285c-.15.48-.571.537-.9.712a8.243,8.243,0,0,1-1.256.508c-.36.119-.741.171-1.1.282-.332.1-.648.255-.979.358-.275.086-.567.122-.849.187-.249.06-.493.134-.74.194-.305.071-.612.142-.921.2-.323.066-.648.131-.976.178-.213.03-.428.026-.644.042-.188.012-.378.022-.565.052s-.367.114-.552.128c-.375.029-.754.013-1.13.038a9.944,9.944,0,0,1-1.193.1,3.23,3.23,0,0,1-1.266-.263,4.842,4.842,0,0,0-1.051-.324,2.94,2.94,0,0,0-.857.017c-.04,0-.078-.01-.116-.01-.349,0-.7.014-1.046,0-.271-.007-.54-.057-.809-.061s-.569.028-.853.035a6.039,6.039,0,0,1-.648-.009c-.3-.022-.6-.078-.907-.1-.335-.017-.672,0-1.01-.006-.009,0-.019.006-.028,0l-.733-.066a9.977,9.977,0,0,1-2.579-.72c-.267-.1-.536-.2-.8-.3,0-.05.009-.1.014-.15a2.509,2.509,0,0,1,.523-.058c.523.043,1.041.112,1.562.172a.575.575,0,0,1,.058.013c.4.071.8.16,1.2.207.383.044.773.023,1.156.066s.758.142,1.138.179c.323.03.652,0,.979,0,.233,0,.471.024.707.015.272-.01.544-.048.817-.068.165-.013.331-.023.5-.023a8.049,8.049,0,0,0,1.258-.006,4.61,4.61,0,0,0,1.819-.46,4.485,4.485,0,0,1,1.327-.408c.584-.137,1.179-.216,1.761-.359.48-.117.94-.316,1.419-.43a5.666,5.666,0,0,1,.983-.082.21.21,0,0,1,.164.063c.217.334.558.23.843.259a1.822,1.822,0,0,0,.741-.138,7.747,7.747,0,0,0,1-.415c.51-.257,1.009-.539,1.511-.814.325-.179.652-.355.97-.548.43-.259.863-.517,1.276-.809.452-.317.873-.691,1.327-1.006a9.037,9.037,0,0,0,1.541-1.289c.274-.3.55-.593.845-.865a2.121,2.121,0,0,1,.761-.568c.223-.056.52.134.756.269a.052.052,0,0,1,.021.022c.078-.062.156-.122.235-.183.226-.17.462-.323.688-.49s.448-.332.664-.512a.66.66,0,0,0,.129-.207c.129-.246.27-.483.379-.738.1-.23.161-.476.24-.716s.166-.486.247-.729a3.252,3.252,0,0,1,.687-1.088.531.531,0,0,0,.071-.139c.4-1.034.789-2.069,1.2-3.1.128-.327.327-.624.436-.957.051-.152.1-.3.158-.455a3.723,3.723,0,0,0,.018-.538l-.273-.066c-.256.419-.511.822-.753,1.235a1.785,1.785,0,0,0-.128.361c-.469,1.463-.922,2.934-1.414,4.389a5.3,5.3,0,0,1-.806,1.5c-.187.244-.3.551-.478.8-.156.228-.356.419-.529.635a2.178,2.178,0,0,0-.167.283c-.09-.012-.185-.029-.3-.047a9.705,9.705,0,0,1,.484-1.5l-.094-.014a9.214,9.214,0,0,1,.51-1.548,14.454,14.454,0,0,1,.806-1.331,3.717,3.717,0,0,0,.446-1.013c.452-1.38.866-2.774,1.337-4.146a3.8,3.8,0,0,1,.593-.88c.121-.171.251-.336.379-.5s.245-.294.365-.442c.036-.044.079-.086.122-.13.013-.1.026-.191.037-.286a11.214,11.214,0,0,0,.056-1.373c0-.48-.051-.96-.065-1.439-.006-.266.025-.535.026-.8a2.8,2.8,0,0,0-.029-.5,12.514,12.514,0,0,0-.27-1.906c-.168-.495-.21-1.04-.335-1.556-.092-.381-.23-.749-.343-1.124-.164-.549-.284-1.12-.5-1.645a7.316,7.316,0,0,0-.986-1.964c-.223-.279-.333-.665-.556-.949-.3-.373-.653-.69-.978-1.036-.157-.166-.3-.355-.458-.512a3.888,3.888,0,0,0-.5-.4c-.289-.2-.592-.376-.878-.58-.3-.215-.592-.453-.886-.682-.034-.023-.068-.044-.1-.065a7.772,7.772,0,0,0-.8-.488,17.764,17.764,0,0,0-3.136-1.374,9.122,9.122,0,0,0-1.172-.228,7.49,7.49,0,0,0-1.263-.048c-.331.018-.658.13-.989.182-.19.028-.385.006-.575.033s-.4.085-.6.126c-.142.028-.285.05-.429.073-.5.089-.992.175-1.489.267-.367.069-.734.136-1.1.222-.426.1-.848.231-1.271.331-.282.066-.576.074-.851.154-.389.112-.769.259-1.148.4-.331.126-.663.253-.981.411a8.684,8.684,0,0,0-1.718.885c-.418.336-.9.588-1.332.9-.372.266-.717.581-1.089.849-.493.355-1.006.68-1.5,1.03-.4.276-.778.58-1.175.857-.246.172-.516.3-.759.477-.319.229-.624.48-.931.726-.2.163-.4.329-.592.5-.224.195-.449.391-.664.6-.269.257-.535.524-.793.794-.227.243-.432.508-.666.739-.206.21-.438.385-.654.581-.132.118-.248.253-.38.371-.3.267-.6.528-.9.791-.223.19-.439.391-.675.565a9.083,9.083,0,0,1-.782.5,1.416,1.416,0,0,1-.4.16,1.175,1.175,0,0,1-.291,0c-.008-.03-.014-.058-.022-.087.232-.175.473-.332.691-.524s.422-.443.64-.656c.173-.169.357-.325.536-.484.253-.224.506-.448.761-.668.323-.279.659-.541.971-.834s.6-.638.916-.938.636-.539.937-.828c.245-.234.457-.509.695-.753.288-.3.587-.578.882-.865.155-.151.311-.3.468-.451.2-.191.406-.381.612-.566.235-.207.468-.416.712-.609l0,0c-.224.146-.463.268-.68.423-.319.231-.623.482-.932.728-.2.162-.4.328-.592.5-.224.195-.448.391-.664.6-.271.258-.536.524-.793.8-.227.241-.433.506-.667.737-.206.21-.438.385-.654.58-.13.119-.248.254-.38.373-.3.267-.6.528-.9.789-.221.193-.44.392-.675.566-.251.183-.515.347-.781.5a1.484,1.484,0,0,1-.392.157Zm5.01,10.429a.976.976,0,0,1-.375.833,1.767,1.767,0,0,1-1.078.282,4.54,4.54,0,0,1-.662-.041,2.8,2.8,0,0,1-.576-.15v-.949a3.669,3.669,0,0,0,.6.2,2.53,2.53,0,0,0,.586.078c.256,0,.384-.059.384-.175a.2.2,0,0,0-.107-.162,4.92,4.92,0,0,0-.625-.277,1.558,1.558,0,0,1-.659-.439,1.006,1.006,0,0,1-.188-.625.868.868,0,0,1,.37-.745,1.76,1.76,0,0,1,1.044-.267,2.628,2.628,0,0,1,.637.074,3.831,3.831,0,0,1,.618.216l-.321.764a3.6,3.6,0,0,0-.5-.18,1.647,1.647,0,0,0-.43-.074c-.193,0-.29.048-.29.143a.177.177,0,0,0,.1.15,5.392,5.392,0,0,0,.586.252,2.248,2.248,0,0,1,.536.291.86.86,0,0,1,.26.335A1.16,1.16,0,0,1,149.8,147.505Zm-3.467,1.054h-1.184v-4.711h1.184Zm-4.08-1.724a1.531,1.531,0,0,0,.118.674.411.411,0,0,0,.4.231.4.4,0,0,0,.389-.231,1.59,1.59,0,0,0,.112-.674,1.5,1.5,0,0,0-.114-.662.455.455,0,0,0-.783,0A1.468,1.468,0,0,0,142.257,146.835Zm2.22,0a1.819,1.819,0,0,1-.452,1.312,1.672,1.672,0,0,1-1.266.471,1.636,1.636,0,0,1-1.242-.481,2.085,2.085,0,0,1-.01-2.606,1.69,1.69,0,0,1,1.269-.465,1.8,1.8,0,0,1,.893.215,1.471,1.471,0,0,1,.6.616A2,2,0,0,1,144.477,146.838Zm-6.17,0a1.544,1.544,0,0,0,.117.674.412.412,0,0,0,.4.231.4.4,0,0,0,.389-.231,1.589,1.589,0,0,0,.112-.674,1.5,1.5,0,0,0-.114-.662.405.405,0,0,0-.393-.224.41.41,0,0,0-.391.222A1.48,1.48,0,0,0,138.307,146.835Zm2.22,0a1.816,1.816,0,0,1-.452,1.312,1.672,1.672,0,0,1-1.266.471,1.636,1.636,0,0,1-1.242-.481,2.085,2.085,0,0,1-.01-2.606,1.688,1.688,0,0,1,1.269-.465,1.8,1.8,0,0,1,.893.215,1.471,1.471,0,0,1,.6.616A2,2,0,0,1,140.527,146.838Zm-4.481,1.721h-1.2v-3.447h-1.082v-.979h3.356v.979h-1.078Zm-6.071-.874a.443.443,0,0,0,.4-.179,1.072,1.072,0,0,0,.126-.551v-.094a1.2,1.2,0,0,0-.13-.645.458.458,0,0,0-.408-.192.4.4,0,0,0-.361.219,1.244,1.244,0,0,0-.13.625,1.155,1.155,0,0,0,.131.608A.413.413,0,0,0,129.975,147.685Zm-.484.936a1.024,1.024,0,0,1-.64-.208,1.331,1.331,0,0,1-.424-.615,2.734,2.734,0,0,1-.15-.949,2.224,2.224,0,0,1,.335-1.308,1.147,1.147,0,0,1,1.427-.358,1.13,1.13,0,0,1,.395.389h.024a5.808,5.808,0,0,1-.058-.806v-.918H131.6v4.711H130.7l-.255-.432H130.4A1,1,0,0,1,129.492,148.621Zm-3.054-.062v-1.87a1.086,1.086,0,0,0-.1-.516.339.339,0,0,0-.318-.174.457.457,0,0,0-.432.239,1.813,1.813,0,0,0-.134.821v1.5h-1.183v-3.428h.893l.148.423h.07a.927.927,0,0,1,.419-.364,1.475,1.475,0,0,1,.616-.121,1.167,1.167,0,0,1,.885.33,1.292,1.292,0,0,1,.316.93v2.23Zm-4.668-.775a.535.535,0,0,0,.367-.136.454.454,0,0,0,.154-.354v-.267l-.273.013c-.39.013-.584.157-.584.428C121.434,147.678,121.545,147.784,121.769,147.784Zm.877.775-.227-.454H122.4a1.336,1.336,0,0,1-.487.407,1.611,1.611,0,0,1-.642.109,1.01,1.01,0,0,1-.763-.29,1.142,1.142,0,0,1-.278-.819.932.932,0,0,1,.381-.816,2.087,2.087,0,0,1,1.1-.3l.572-.018v-.048a.371.371,0,0,0-.417-.423,2.492,2.492,0,0,0-.954.254l-.342-.782a3.286,3.286,0,0,1,1.512-.309,1.472,1.472,0,0,1,1.022.327,1.167,1.167,0,0,1,.362.914v2.25Zm-4.5-1.054a.976.976,0,0,1-.375.833,1.767,1.767,0,0,1-1.078.282,4.555,4.555,0,0,1-.662-.041,2.8,2.8,0,0,1-.576-.15v-.949a3.679,3.679,0,0,0,.6.2,2.519,2.519,0,0,0,.586.078c.256,0,.384-.059.384-.175a.2.2,0,0,0-.108-.162,4.885,4.885,0,0,0-.624-.277,1.556,1.556,0,0,1-.66-.439,1.006,1.006,0,0,1-.188-.625.868.868,0,0,1,.37-.745,1.762,1.762,0,0,1,1.044-.267,2.624,2.624,0,0,1,.637.074,3.831,3.831,0,0,1,.618.216l-.32.764a3.606,3.606,0,0,0-.5-.18,1.648,1.648,0,0,0-.429-.074c-.194,0-.291.048-.291.143a.177.177,0,0,0,.1.15,5.554,5.554,0,0,0,.586.252,2.232,2.232,0,0,1,.536.291.86.86,0,0,1,.26.335A1.16,1.16,0,0,1,118.142,147.505Zm-3.819.179a1.758,1.758,0,0,0,.572-.118v.863a2.253,2.253,0,0,1-.456.146,2.537,2.537,0,0,1-.506.044,1.1,1.1,0,0,1-.86-.292,1.306,1.306,0,0,1-.263-.9v-1.413h-.416v-.482l.527-.371.306-.721H114v.688h.842v.886H114v1.335C114,147.574,114.108,147.685,114.323,147.685Zm-2.148-1.668h-.728v2.542h-1.184v-2.542h-.454v-.58l.478-.291v-.058a1.407,1.407,0,0,1,.277-.976,1.167,1.167,0,0,1,.888-.3,2.627,2.627,0,0,1,.446.036,3.563,3.563,0,0,1,.489.127l-.254.765a1.6,1.6,0,0,0-.427-.061.23.23,0,0,0-.2.084.459.459,0,0,0-.062.271v.091h.728Zm-4.133-1.742a.505.505,0,0,1,.147-.4.943.943,0,0,1,.96,0,.5.5,0,0,1,.152.394q0,.521-.633.52T108.041,144.275Zm1.214,4.284h-1.184v-3.428h1.184Zm-3.932-2.591h1.909v2.386a5.243,5.243,0,0,1-1.71.267,2.065,2.065,0,0,1-1.581-.592,2.381,2.381,0,0,1-.558-1.692,2.227,2.227,0,0,1,.611-1.669,2.351,2.351,0,0,1,1.713-.6,3.829,3.829,0,0,1,.789.078,3.34,3.34,0,0,1,.645.2l-.378.938a2.32,2.32,0,0,0-1.05-.237,1,1,0,0,0-.809.341,1.467,1.467,0,0,0-.286.973,1.491,1.491,0,0,0,.259.945.9.9,0,0,0,.745.325,2.223,2.223,0,0,0,.49-.051v-.692h-.789Zm-4.273,1.686.042.07a11.662,11.662,0,0,1-.533,1.7h-.844q.088-.417.176-.936c.06-.346.1-.623.123-.831Zm-1.756-.148a.976.976,0,0,1-.375.833,1.767,1.767,0,0,1-1.078.282,4.555,4.555,0,0,1-.662-.041,2.8,2.8,0,0,1-.576-.15v-.949a3.678,3.678,0,0,0,.6.2,2.524,2.524,0,0,0,.586.078c.256,0,.384-.059.384-.175a.2.2,0,0,0-.107-.162,4.979,4.979,0,0,0-.625-.277,1.567,1.567,0,0,1-.66-.439,1.006,1.006,0,0,1-.188-.625.867.867,0,0,1,.371-.745,1.759,1.759,0,0,1,1.043-.267,2.624,2.624,0,0,1,.637.074,3.831,3.831,0,0,1,.618.216l-.32.764a3.633,3.633,0,0,0-.5-.18,1.658,1.658,0,0,0-.43-.074c-.193,0-.291.048-.291.143a.178.178,0,0,0,.1.15,5.426,5.426,0,0,0,.585.252,2.232,2.232,0,0,1,.536.291.862.862,0,0,1,.261.335A1.174,1.174,0,0,1,99.293,147.505Zm-4.636,1.054V146.7a1.114,1.114,0,0,0-.1-.523.318.318,0,0,0-.3-.174.424.424,0,0,0-.4.233,1.586,1.586,0,0,0-.127.729v1.6H92.547V146.7a1.177,1.177,0,0,0-.091-.523.308.308,0,0,0-.294-.174.425.425,0,0,0-.406.248,1.891,1.891,0,0,0-.127.811v1.5H90.447v-3.428h.893l.147.423h.07a.882.882,0,0,1,.395-.361,1.352,1.352,0,0,1,.589-.124,1.158,1.158,0,0,1,1.042.451h.094a.961.961,0,0,1,.4-.331,1.337,1.337,0,0,1,.57-.12,1.178,1.178,0,0,1,.9.312,1.348,1.348,0,0,1,.291.948v2.23ZM88.2,145.875a.494.494,0,0,0-.35.132.617.617,0,0,0-.164.413H88.7a.588.588,0,0,0-.141-.4A.462.462,0,0,0,88.2,145.875Zm.07,2.746a1.84,1.84,0,0,1-1.331-.456,1.717,1.717,0,0,1-.473-1.3,1.867,1.867,0,0,1,.439-1.334,1.641,1.641,0,0,1,1.253-.465,1.664,1.664,0,0,1,1.2.4,1.543,1.543,0,0,1,.421,1.165v.527H87.661a.588.588,0,0,0,.211.45.822.822,0,0,0,.54.163,2.612,2.612,0,0,0,.573-.058,2.787,2.787,0,0,0,.568-.2v.853a2.106,2.106,0,0,1-.575.2A4,4,0,0,1,88.269,148.621Zm-2.827-.936a1.758,1.758,0,0,0,.572-.118v.863a2.285,2.285,0,0,1-.456.146,2.546,2.546,0,0,1-.507.044,1.106,1.106,0,0,1-.86-.292,1.31,1.31,0,0,1-.263-.9v-1.413h-.415v-.482l.527-.371.306-.721h.775v.688h.842v.886h-.842v1.335C85.121,147.574,85.228,147.685,85.442,147.685Zm-3.769.874v-4.426h1.2v4.426Zm-2.5,0H77.989v-4.711h1.184Zm-3.687-.775a.535.535,0,0,0,.367-.136.454.454,0,0,0,.153-.354v-.267l-.273.013c-.389.013-.584.157-.584.428C75.15,147.678,75.262,147.784,75.486,147.784Zm.877.775-.227-.454h-.025a1.348,1.348,0,0,1-.487.407,1.615,1.615,0,0,1-.643.109,1.009,1.009,0,0,1-.762-.29,1.142,1.142,0,0,1-.278-.819.93.93,0,0,1,.381-.816,2.085,2.085,0,0,1,1.1-.3l.572-.018v-.048a.372.372,0,0,0-.418-.423,2.489,2.489,0,0,0-.953.254l-.342-.782a3.286,3.286,0,0,1,1.512-.309,1.472,1.472,0,0,1,1.022.327,1.169,1.169,0,0,1,.361.914v2.25Zm-4.225,0v-1.87a1.086,1.086,0,0,0-.1-.516.339.339,0,0,0-.318-.174.458.458,0,0,0-.433.239,1.815,1.815,0,0,0-.133.821v1.5H69.974v-3.428h.893l.148.423h.07a.927.927,0,0,1,.419-.364,1.472,1.472,0,0,1,.616-.121,1.167,1.167,0,0,1,.885.33,1.292,1.292,0,0,1,.316.93v2.23Zm-5.062-1.724a1.53,1.53,0,0,0,.118.674.412.412,0,0,0,.4.231.4.4,0,0,0,.388-.231,1.588,1.588,0,0,0,.113-.674,1.5,1.5,0,0,0-.114-.662.456.456,0,0,0-.784,0A1.468,1.468,0,0,0,67.076,146.835Zm2.221,0a1.819,1.819,0,0,1-.452,1.312,1.673,1.673,0,0,1-1.266.471,1.638,1.638,0,0,1-1.242-.481,2.084,2.084,0,0,1-.009-2.606,1.687,1.687,0,0,1,1.269-.465,1.8,1.8,0,0,1,.892.215,1.473,1.473,0,0,1,.6.616A2,2,0,0,1,69.3,146.838Zm-5.314-2.563a.5.5,0,0,1,.148-.4.943.943,0,0,1,.96,0,.5.5,0,0,1,.152.394q0,.521-.634.52T63.983,144.275Zm1.214,4.284H64.013v-3.428H65.2Zm-2.361-.874a1.758,1.758,0,0,0,.571-.118v.863a2.253,2.253,0,0,1-.456.146,2.537,2.537,0,0,1-.506.044,1.1,1.1,0,0,1-.86-.292,1.306,1.306,0,0,1-.263-.9v-1.413h-.415v-.482l.527-.371.306-.721h.775v.688h.842v.886h-.842v1.335C62.515,147.574,62.621,147.685,62.837,147.685Zm-4.578-.849a1.53,1.53,0,0,0,.118.674.412.412,0,0,0,.4.231.4.4,0,0,0,.388-.231,1.588,1.588,0,0,0,.113-.674,1.5,1.5,0,0,0-.114-.662.456.456,0,0,0-.784,0A1.468,1.468,0,0,0,58.259,146.835Zm2.221,0a1.819,1.819,0,0,1-.452,1.312,1.673,1.673,0,0,1-1.266.471,1.637,1.637,0,0,1-1.242-.481,2.085,2.085,0,0,1-.01-2.606,1.69,1.69,0,0,1,1.27-.465,1.8,1.8,0,0,1,.892.215,1.473,1.473,0,0,1,.6.616A2,2,0,0,1,60.48,146.838Zm-5.262,1.721V146.7a1.114,1.114,0,0,0-.1-.523.318.318,0,0,0-.3-.174.425.425,0,0,0-.4.233,1.6,1.6,0,0,0-.126.729v1.6H53.107V146.7a1.189,1.189,0,0,0-.09-.523.308.308,0,0,0-.294-.174.425.425,0,0,0-.406.248,1.891,1.891,0,0,0-.127.811v1.5H51.007v-3.428H51.9l.148.423h.07a.874.874,0,0,1,.395-.361,1.348,1.348,0,0,1,.588-.124,1.157,1.157,0,0,1,1.042.451h.094a.963.963,0,0,1,.4-.331,1.34,1.34,0,0,1,.571-.12,1.178,1.178,0,0,1,.9.312,1.351,1.351,0,0,1,.29.948v2.23Zm-7.108-1.724a1.53,1.53,0,0,0,.118.674.412.412,0,0,0,.4.231.4.4,0,0,0,.388-.231,1.588,1.588,0,0,0,.113-.674,1.5,1.5,0,0,0-.114-.662.456.456,0,0,0-.784,0A1.468,1.468,0,0,0,48.109,146.835Zm2.221,0a1.819,1.819,0,0,1-.452,1.312,1.672,1.672,0,0,1-1.266.471,1.639,1.639,0,0,1-1.242-.481,2.084,2.084,0,0,1-.009-2.606,1.687,1.687,0,0,1,1.269-.465,1.8,1.8,0,0,1,.893.215,1.476,1.476,0,0,1,.6.616A2,2,0,0,1,50.33,146.838Zm-3.989-1.769a1.786,1.786,0,0,1,.293.024l.067.012-.106,1.118a1.733,1.733,0,0,0-.4-.037.767.767,0,0,0-.562.177.693.693,0,0,0-.175.511v1.686H44.272v-3.428h.881l.185.547h.057a1.173,1.173,0,0,1,.413-.44A.983.983,0,0,1,46.341,145.069Zm-4.721,1.048h.218a.6.6,0,0,0,.429-.151.548.548,0,0,0,.159-.418q0-.448-.5-.447H41.62Zm2.017-.576a1.483,1.483,0,0,1-.437,1.146,1.764,1.764,0,0,1-1.242.4H41.62v1.469h-1.2v-4.426h1.532a1.874,1.874,0,0,1,1.259.366A1.309,1.309,0,0,1,43.637,145.54ZM155.1,116.083c.151-.2.291-.424.46-.61a5.229,5.229,0,0,1,.427-.343c.263-.243.518-.5.773-.749.308-.3.6-.627.921-.917.266-.241.564-.443.842-.668.48-.382.945-.783,1.437-1.146a8.958,8.958,0,0,1,.951-.575c.676-.382,1.349-.787,2.044-1.126.5-.244,1.038-.4,1.558-.6.339-.126.672-.266,1.014-.371.263-.082.54-.113.809-.177.419-.1.835-.233,1.258-.319s.848-.106,1.265-.195c.394-.084.776-.239,1.168-.328s.827-.126,1.232-.227c.327-.08.637-.239.96-.339.276-.083.56-.142.841-.2.324-.066.65-.126.976-.183a2.867,2.867,0,0,1,.487-.059c.431,0,.861.028,1.289.026.3,0,.6-.034.9-.037a4.478,4.478,0,0,1,.68.05c.41.059.816.147,1.224.21.538.085,1.078.157,1.618.238a1.518,1.518,0,0,1,.259.068c.484.163.961.344,1.447.491a9.644,9.644,0,0,1,.961.22,17.465,17.465,0,0,1,1.767.852,6.4,6.4,0,0,1,.833.66.321.321,0,0,0,.052.031c.326.2.66.379.969.6.237.171.437.4.66.594.16.142.328.271.5.4.226.17.468.319.684.5.2.17.369.379.558.566.142.139.3.26.44.407.243.261.478.532.71.8.106.12.195.262.31.372a3.9,3.9,0,0,1,.761,1.054c.2.39.467.738.668,1.129.4.772.784,1.549,1.144,2.341a16.773,16.773,0,0,1,.627,1.63c.156.47.256.961.389,1.438.122.434.258.864.383,1.3a5.351,5.351,0,0,1,.135.53c.067.36.128.722.182,1.083a4.341,4.341,0,0,1,.044.551c0,.249-.007.5-.012.751-.01.381-.015.764-.025,1.144,0,.043-.012.086-.013.126-.014.437-.022.872-.046,1.307-.018.318-.067.635-.078.953s.011.655.018.981c0,.03,0,.062,0,.093-.03.315-.074.631-.082.946-.011.343.027.686.013,1.028s-.074.676-.1,1.016c-.036.456-.06.914-.089,1.374a.573.573,0,0,1-.009.062,16.556,16.556,0,0,1-.96,3.622,6,6,0,0,1-.6.876c-.163.247-.292.522-.461.765s-.362.443-.538.67c-.142.186-.267.389-.408.574-.186.243-.391.47-.575.713-.15.2-.275.415-.421.614-.117.163-.243.319-.375.472-.163.19-.333.371-.5.555s-.346.371-.512.564c-.13.148-.243.313-.373.463-.38.444-.77.875-1.145,1.324-.247.3-.472.619-.713.922a1.059,1.059,0,0,1-.22.154.6.6,0,0,0,.538.148,4.587,4.587,0,0,0,1.151-.47.918.918,0,0,0,.452-.441c.2-.4.452-.755.684-1.13l.015-.026c.159-.29.317-.58.478-.874l.374.138a5.132,5.132,0,0,1-.181.986,2.465,2.465,0,0,1-.489.625,3.4,3.4,0,0,0-.329.351,3.8,3.8,0,0,1-1.109,1.014,2.245,2.245,0,0,1-1.1.357,4.96,4.96,0,0,1-1.458-.122c-.367-.069-1.828,2.332-1.4,2.246a5.321,5.321,0,0,0,.9-.245,20.77,20.77,0,0,0,1.993-1.093c.412-.284.806-.6,1.217-.885.357-.251.737-.464,1.086-.728.305-.231.578-.516.872-.766.208-.178.438-.331.646-.51s.427-.4.639-.605c.249-.237.5-.473.739-.713a4.049,4.049,0,0,0,.339-.344q.48-.568.95-1.15c.322-.4.624-.817.95-1.212a12.04,12.04,0,0,0,.757-1.13,8.936,8.936,0,0,0,1.044-2.161c.106-.324.33-.6.42-.931a12.358,12.358,0,0,0,.323-1.611,9.191,9.191,0,0,0,.073-1.408c-.009-.418-.093-.833-.128-1.251-.031-.363-.029-.729-.063-1.094-.038-.4-.118-.8-.151-1.206-.02-.25.017-.5.015-.757,0-.3-.025-.594-.035-.892a1.118,1.118,0,0,1,0-.126c.023-.516.069-1.031.065-1.546,0-.436-.076-.871-.09-1.31-.01-.293.043-.59.04-.885,0-.278-.049-.554-.06-.832-.009-.252.013-.506.006-.757-.007-.291-.034-.58-.05-.87a3.336,3.336,0,0,1-.028-.623,3.422,3.422,0,0,0-.155-1.456,13.21,13.21,0,0,0-.551-1.32c-.138-.327-.258-.663-.41-.982-.265-.555-.527-1.113-.831-1.641-.2-.345-.48-.635-.711-.958-.159-.223-.3-.47-.452-.693a2.063,2.063,0,0,0-.316-.364c-.181-.161-.383-.3-.565-.456-.206-.181-.395-.382-.6-.564-.171-.154-.356-.293-.532-.44-.329-.271-.667-.525-.976-.819-.26-.246-.475-.541-.72-.8-.139-.148-.3-.266-.447-.408-.322-.31-.637-.628-.959-.937a5.242,5.242,0,0,0-.454-.391c-.233-.173-.482-.322-.713-.5-.274-.21-.539-.436-.809-.654a.589.589,0,0,0-.1-.066,15,15,0,0,0-2.482-1.155c-.364-.1-.713-.273-1.076-.376a12.4,12.4,0,0,0-2.055-.511c-.43-.045-.81-.217-1.222-.28s-.807-.061-1.21-.1c-.314-.028-.624-.09-.937-.1a7.255,7.255,0,0,0-.817.058c-.171.013-.346.023-.518.035-.44.034-.879.074-1.319.1-.231.013-.465-.015-.7,0a5.794,5.794,0,0,0-.577.107c-.154.026-.31.05-.465.066-.325.038-.654.051-.976.113-.259.048-.508.161-.763.231s-.54.122-.812.184c-.256.058-.516.109-.772.178-.392.108-.785.223-1.171.351-.323.106-.636.251-.958.356-.364.118-.736.207-1.1.308-.243.069-.488.121-.727.2a.938.938,0,0,1-.935-.033c.038-.395.383-.455.607-.552.567-.252,1.166-.416,1.753-.615.463-.157.921-.339,1.391-.464.4-.107.824-.136,1.233-.223.267-.059.526-.182.795-.245s.564-.086.844-.141c.458-.087.914-.2,1.375-.275.331-.054.672-.046,1.006-.086.37-.044.737-.126,1.106-.166.22-.022.446.022.668.012s.46-.042.69-.064c.039,0,.077-.014.116-.016.359,0,.722-.021,1.082,0,.323.016.642.084.965.113.393.034.789.055,1.184.081a.543.543,0,0,1,.086.011c.569.138,1.15.227,1.7.42q2.236.784,4.447,1.646a8.713,8.713,0,0,1,1.358.729c.429.26.843.555,1.247.859.228.169.421.39.634.582.152.134.307.267.464.391.215.165.444.307.645.488.165.146.295.339.447.5.125.137.263.256.389.388.3.309.6.632.908.933.279.269.584.5.859.778.243.244.46.523.691.784.118.134.24.266.365.395.337.343.694.667,1.011,1.034a6.516,6.516,0,0,1,1.353,2.474c.151.514.311,1.022.452,1.539.117.423.235.849.315,1.282.082.456.111.925.179,1.384.05.345.134.683.179,1.027.03.228.006.464.022.7s.058.483.083.727c.019.188.042.379.045.568,0,.252-.022.5-.01.757s.065.53.082.8c.013.224,0,.452,0,.677.009.338.035.676.034,1.014,0,.285-.045.569-.046.853,0,.3.023.612.037.916a.622.622,0,0,1,0,.093,6.531,6.531,0,0,0,.014,1.686c.032.246-.02.5,0,.753a5.962,5.962,0,0,0,.109.6,3.057,3.057,0,0,1,.061.5c0,.284-.029.568-.038.852-.013.373-.019.745-.027,1.12a.474.474,0,0,1,0,.1,13.992,13.992,0,0,1-.714,2.861,7.459,7.459,0,0,1-.607.913c-.022.034-.035.076-.058.112-.227.331-.456.66-.677,1-.15.223-.276.463-.432.678s-.337.4-.5.6c-.144.183-.272.383-.419.564-.283.35-.58.685-.861,1.037-.149.186-.268.4-.418.587-.137.168-.294.314-.443.468-.118.122-.244.235-.355.363-.222.26-.422.544-.66.784-.295.295-.618.549-.927.823-.119.107-.231.219-.348.323a8.35,8.35,0,0,1-.637.546c-.533.381-1.06.782-1.622,1.107-.582.337-2.5,1.191-2.855,1.327s-1.957.6-2.394.671a4.2,4.2,0,0,1-.695,0c-.325,0-.65.013-.976.006a5.6,5.6,0,0,0-1.412,0c-.273.083-.549.155-.825.233s-.552.164-.83.231-.57.11-.852.17c-.325.066-.647.142-.971.209a3.4,3.4,0,0,1-.43.066c-.339.025-.679.031-1.018.065-.379.038-.757.118-1.138.148-.246.017-.495-.033-.742-.03-.267,0-.532.045-.8.053a7.01,7.01,0,0,1-.709-.019c-.312-.028-.62-.092-.933-.108s-.632.049-.941.011c-.44-.054-.871-.168-1.307-.259-.015,0-.025-.027-.062-.074a1.019,1.019,0,0,1,.309-.191,4.637,4.637,0,0,1,.58-.038c.253-.021.508-.047.762-.07a.633.633,0,0,1,.087,0c.291.027.582.079.872.08.46,0,.917-.047,1.378-.053.269,0,.539.054.809.052s.529-.046.8-.069c.164-.014.329-.026.495-.033.374-.011.75,0,1.122-.038.318-.035.626-.143.941-.2.289-.055.584-.073.868-.142a7.667,7.667,0,0,0,.914-.289c.415-.165.829-.334,1.23-.537.576-.293,1.146-.608,1.708-.936a4.822,4.822,0,0,0,1.1-.753,7.6,7.6,0,0,1,2-1.034,7.6,7.6,0,0,0,1.946-.725,4.643,4.643,0,0,0,.638-.566c.158-.146.311-.3.463-.448a4.062,4.062,0,0,0,.31-.323c.139-.174.259-.367.4-.54.157-.195.327-.373.489-.562.123-.142.246-.283.359-.434.252-.336.488-.692.749-1.018s.551-.608.8-.931c.17-.22.29-.485.448-.716.18-.265.374-.516.564-.773.017-.024.038-.046.054-.073.145-.255.295-.508.436-.766a14.444,14.444,0,0,0,1.113-2.844,8.17,8.17,0,0,0,.305-1.079,12.207,12.207,0,0,0,.072-1.25.411.411,0,0,1,0-.063c.054-.4.126-.8.158-1.2.03-.383.019-.767.027-1.152,0-.021.006-.043.008-.064.054-.4.127-.8.158-1.2.026-.361,0-.728.008-1.091,0-.256.018-.513.041-.769.03-.347.092-.693.107-1.041.015-.313-.022-.628-.022-.942,0-.285.035-.57.03-.855s-.045-.572-.057-.86c-.01-.236.014-.475-.009-.709-.034-.395-.09-.785-.147-1.176-.041-.292-.081-.585-.148-.869-.057-.239-.16-.466-.226-.7-.085-.306-.147-.62-.226-.929-.09-.36-.18-.72-.279-1.076-.139-.492-.278-.981-.433-1.465a5.172,5.172,0,0,0-.333-.817c-.228-.444-.472-.879-.733-1.3a9.151,9.151,0,0,0-.659-.894c-.334-.415-.679-.819-1.029-1.215-.365-.419-.737-.833-1.117-1.234-.323-.342-.663-.664-1-.99-.231-.225-.465-.447-.7-.665-.371-.335-.747-.664-1.12-1a.44.44,0,0,0-.052-.033,9.979,9.979,0,0,1-1.142-.662,11.6,11.6,0,0,0-3.095-1.3,6.661,6.661,0,0,0-1.4-.3c-.491-.078-.985-.122-1.482-.159-.327-.024-.656-.01-.984-.014-.039,0-.08-.008-.118-.009-.4-.02-.8-.029-1.2-.056-.3-.019-.6-.079-.9-.086-.235-.006-.473.046-.711.064-.221.014-.445,0-.667.025s-.459.063-.688.1c-.152.021-.306.046-.458.07-.535.085-1.078.131-1.6.266-.549.142-1.081.368-1.62.556-.5.176-1.014.338-1.515.528-.283.106-.55.267-.834.38-.524.2-1.056.389-1.582.588-.179.066-.348.162-.528.221-.385.129-.774.242-1.162.364-.25.077-.5.166-.749.24s-.488.129-.729.2a4.114,4.114,0,0,0-.712.241,16.011,16.011,0,0,0-1.5.84,4.225,4.225,0,0,0-.666.661c-.268.281-.535.567-.795.857-.216.243-.417.5-.641.739-.2.216-.433.407-.652.61a8.5,8.5,0,0,1-1.791,1.058c-.088.048-.213.013-.32.018C155.132,116.143,155.114,116.113,155.1,116.083Z" fill="#fefefe" fill-rule="evenodd"/>
    <path id="Path_68" data-name="Path 68" d="M204.138,145.84l0-.478a8.412,8.412,0,0,1-1.33.741,7.817,7.817,0,0,1-3.012.723,6.872,6.872,0,0,1-1.036-.078,6.1,6.1,0,0,1-3.991-2.374,7.754,7.754,0,0,1-1.485-4.728,10.145,10.145,0,0,1,.119-1.53,10.88,10.88,0,0,1,3.083-6.081,8.183,8.183,0,0,1,5.738-2.428,7.3,7.3,0,0,1,2.9.559,5.046,5.046,0,0,1,1,.586l1.278-8.34.088-.579h4.174l-.12.781-3.572,23.323-.089.58h-3.743Zm-6.533-7.523a7.184,7.184,0,0,0-.085,1.085,4.392,4.392,0,0,0,.635,2.443,2.476,2.476,0,0,0,1.731,1.1,3.376,3.376,0,0,0,.505.037,4.724,4.724,0,0,0,3.244-1.321,5.874,5.874,0,0,0,1.66-3.449,6.713,6.713,0,0,0,.079-1.007,3.961,3.961,0,0,0-.862-2.636,3.178,3.178,0,0,0-1.946-1.073,3.348,3.348,0,0,0-.508-.038,3.843,3.843,0,0,0-2.835,1.278A6.685,6.685,0,0,0,197.605,138.317ZM188.661,149l-.476,3.109-.089.58h-4.174l.12-.781.476-3.109.089-.58h4.173Zm3.005-19.623-2.482,16.2-.088.58h-4.174l.12-.781,2.481-16.2.089-.58h4.174Z" transform="translate(-29.091 -6.107)" fill="#e31e25" fill-rule="evenodd"/>
  </g>
</svg>
