<svg xmlns="http://www.w3.org/2000/svg" width="90.202" height="90.202" viewBox="0 0 90.202 90.202">
  <g id="embassy" transform="translate(0)">
    <path id="Path_74" data-name="Path 74" d="M88.44,51.443H76.108V45.1a1.762,1.762,0,0,0-1.349-1.713L67.751,41.7A22.9,22.9,0,0,0,46.863,22.267V17.618H66.242a1.762,1.762,0,0,0,1.246-3.008l-5.8-5.8,5.8-5.8A1.762,1.762,0,0,0,66.242,0H45.1a1.762,1.762,0,0,0-1.762,1.762v20.5A22.9,22.9,0,0,0,22.451,41.7l-7.008,1.689A1.762,1.762,0,0,0,14.094,45.1v6.342H1.762A1.762,1.762,0,0,0,0,53.205V88.44A1.762,1.762,0,0,0,1.762,90.2H37.173a1.762,1.762,0,1,0,0-3.524H17.618V83.155H72.585v3.524H53.029a1.762,1.762,0,0,0,0,3.524H88.44A1.762,1.762,0,0,0,90.2,88.44V53.205A1.762,1.762,0,0,0,88.44,51.443ZM46.863,3.524H61.989l-4.04,4.04a1.762,1.762,0,0,0,0,2.492l4.04,4.039H46.863ZM45.1,25.722A19.27,19.27,0,0,1,64,40.8l-18.49-4.455a1.762,1.762,0,0,0-.826,0L26.2,40.8A19.271,19.271,0,0,1,45.1,25.722ZM17.618,46.489,45.1,39.866l27.483,6.623v4.955H17.618Zm10.571,8.478V79.632H24.665V54.967Zm3.524,0h8.1V79.632h-8.1Zm11.628,0h3.524V79.632H43.339Zm7.047,0h8.1V79.632h-8.1Zm11.628,0h3.524V79.632H62.014ZM3.524,86.679V54.967H21.141V79.632H17.618V74.346a1.762,1.762,0,0,0-1.762-1.762H8.809a1.762,1.762,0,0,0-1.762,1.762v7.047a1.762,1.762,0,0,0,1.762,1.762h5.285v3.524Zm10.571-7.047H10.571V76.108h3.524Zm72.585,7.047H76.108V83.155h5.285a1.762,1.762,0,0,0,1.762-1.762V74.346a1.762,1.762,0,0,0-1.762-1.762H74.346a1.762,1.762,0,0,0-1.762,1.762v5.285H69.061V54.967H86.679ZM76.108,79.632V76.108h3.524v3.524Z" fill="#fff"/>
    <path id="Path_75" data-name="Path 75" d="M412,333.762v7.047a1.762,1.762,0,0,0,1.762,1.762h7.047a1.762,1.762,0,0,0,1.762-1.762v-7.047A1.762,1.762,0,0,0,420.809,332h-7.047A1.762,1.762,0,0,0,412,333.762Zm3.524,1.762h3.524v3.524h-3.524Z" transform="translate(-339.415 -273.509)" fill="#fff"/>
    <path id="Path_76" data-name="Path 76" d="M41.762,342.571h7.047a1.762,1.762,0,0,0,1.762-1.762v-7.047A1.762,1.762,0,0,0,48.809,332H41.762A1.762,1.762,0,0,0,40,333.762v7.047A1.762,1.762,0,0,0,41.762,342.571Zm1.762-7.047h3.524v3.524H43.524Z" transform="translate(-32.953 -273.509)" fill="#fff"/>
    <ellipse id="Ellipse_9" data-name="Ellipse 9" cx="1" cy="1.5" rx="1" ry="1.5" transform="translate(44.101 87.101)" fill="#fff"/>
  </g>
</svg>
