<svg id="factory" xmlns="http://www.w3.org/2000/svg" width="100.244" height="100.244" viewBox="0 0 100.244 100.244">
  <g id="Group_126" data-name="Group 126" transform="translate(0 26.681)">
    <g id="Group_125" data-name="Group 125">
      <path id="Path_85" data-name="Path 85" d="M98.775,206.9H93.966V186.717a4.6,4.6,0,0,0-3.038-8.067H81.321l-1.483-23.735a1.468,1.468,0,0,0-1.465-1.377H72.094a1.468,1.468,0,0,0-1.465,1.377L69.145,178.65H65.627l-1.483-23.735a1.468,1.468,0,0,0-1.465-1.377H56.4a1.468,1.468,0,0,0-1.465,1.377L53.451,178.65H49.932l-1.483-23.735a1.468,1.468,0,0,0-1.465-1.377H40.705a1.468,1.468,0,0,0-1.465,1.377L37.756,178.65h-4.09l-.91-40.94a1.468,1.468,0,0,0-1.468-1.436H21.872a1.468,1.468,0,0,0-1.468,1.436l-1.049,47.218H7.746A4.6,4.6,0,0,0,4.708,193V206.9H1.468a1.468,1.468,0,1,0,0,2.937H98.775a1.468,1.468,0,1,0,0-2.937ZM19.214,191.206h-5.19a1.468,1.468,0,1,0,0,2.937h5.125L18.866,206.9H7.645V194.14l.1,0a1.468,1.468,0,0,0,0-2.937,1.67,1.67,0,1,1,0-3.341H19.289Zm54.259-34.731h3.519l1.386,22.175H72.088Zm-15.695,0H61.3l1.386,22.175H56.393Zm-15.695,0H45.6l1.386,22.175H40.7ZM25.112,206.9H21.8l1.5-67.689h6.545l.877,39.439H28.149a4.6,4.6,0,0,0-3.038,8.067Zm65.816-21.973H87.789a1.468,1.468,0,0,0,0,2.937h3.139l.1,0V206.9H28.048V187.863l.1,0H81.512a1.468,1.468,0,1,0,0-2.937H28.149a1.67,1.67,0,1,1,0-3.341H90.928a1.67,1.67,0,1,1,0,3.341Z" transform="translate(0 -136.275)" fill="#fff"/>
    </g>
  </g>
  <g id="Group_128" data-name="Group 128" transform="translate(23.542)">
    <g id="Group_127" data-name="Group 127">
      <path id="Path_86" data-name="Path 86" d="M178.21,0A18.613,18.613,0,0,0,166.2,4.373,13.976,13.976,0,0,0,147.984,5.6a10.863,10.863,0,0,0-14.267,5.636,6.673,6.673,0,0,0-1.806-.248,6.955,6.955,0,0,0-6.574,4.736,4.434,4.434,0,0,0-.489-.027,4.613,4.613,0,0,0-4.607,4.607,1.469,1.469,0,1,0,2.937,0,1.672,1.672,0,0,1,1.671-1.67,1.638,1.638,0,0,1,.849.245,1.468,1.468,0,0,0,2.22-1.171,4.019,4.019,0,0,1,3.994-3.782,3.96,3.96,0,0,1,1.958.536,1.468,1.468,0,0,0,2.14-.9,7.93,7.93,0,0,1,11.577-4.88,1.468,1.468,0,0,0,1.834-.318A11.047,11.047,0,0,1,165.252,7.4a1.468,1.468,0,0,0,2.007-.029,15.785,15.785,0,1,1-2.921,18.921,1.469,1.469,0,0,0-1.9-.63A11.033,11.033,0,0,1,149.42,22.83a1.468,1.468,0,0,0-1.834-.318,7.92,7.92,0,0,1-10.2-2.087,1.469,1.469,0,0,0-1.157-.574h-.007a1.469,1.469,0,0,0-1.156.562,3.994,3.994,0,0,1-3.152,1.559,1.468,1.468,0,0,0,0,2.937,6.862,6.862,0,0,0,4.243-1.463,10.853,10.853,0,0,0,11.83,2.143,14,14,0,0,0,9.823,4.029,13.841,13.841,0,0,0,4.622-.791A18.733,18.733,0,1,0,178.21,0Z" transform="translate(-120.241)" fill="#fff"/>
    </g>
  </g>
  <g id="Group_130" data-name="Group 130" transform="translate(36.098 81.612)">
    <g id="Group_129" data-name="Group 129">
      <path id="Path_87" data-name="Path 87" d="M185.839,416.839a1.468,1.468,0,0,0-1.468,1.468v3.139a1.468,1.468,0,0,0,2.937,0v-3.139A1.468,1.468,0,0,0,185.839,416.839Z" transform="translate(-184.371 -416.839)" fill="#fff"/>
    </g>
  </g>
  <g id="Group_132" data-name="Group 132" transform="translate(42.376 81.612)">
    <g id="Group_131" data-name="Group 131">
      <path id="Path_88" data-name="Path 88" d="M217.9,416.839a1.468,1.468,0,0,0-1.468,1.468v3.139a1.468,1.468,0,1,0,2.937,0v-3.139A1.468,1.468,0,0,0,217.9,416.839Z" transform="translate(-216.436 -416.839)" fill="#fff"/>
    </g>
  </g>
  <g id="Group_134" data-name="Group 134" transform="translate(48.653 81.612)">
    <g id="Group_133" data-name="Group 133">
      <path id="Path_89" data-name="Path 89" d="M249.968,416.839a1.468,1.468,0,0,0-1.468,1.468v3.139a1.468,1.468,0,1,0,2.937,0v-3.139A1.468,1.468,0,0,0,249.968,416.839Z" transform="translate(-248.5 -416.839)" fill="#fff"/>
    </g>
  </g>
  <g id="Group_136" data-name="Group 136" transform="translate(54.931 81.612)">
    <g id="Group_135" data-name="Group 135">
      <path id="Path_90" data-name="Path 90" d="M282.032,416.839a1.468,1.468,0,0,0-1.468,1.468v3.139a1.468,1.468,0,1,0,2.937,0v-3.139A1.468,1.468,0,0,0,282.032,416.839Z" transform="translate(-280.564 -416.839)" fill="#fff"/>
    </g>
  </g>
  <g id="Group_138" data-name="Group 138" transform="translate(61.209 81.612)">
    <g id="Group_137" data-name="Group 137">
      <path id="Path_91" data-name="Path 91" d="M314.1,416.839a1.468,1.468,0,0,0-1.468,1.468v3.139a1.468,1.468,0,1,0,2.937,0v-3.139A1.468,1.468,0,0,0,314.1,416.839Z" transform="translate(-312.629 -416.839)" fill="#fff"/>
    </g>
  </g>
  <g id="Group_140" data-name="Group 140" transform="translate(67.487 81.612)">
    <g id="Group_139" data-name="Group 139">
      <path id="Path_92" data-name="Path 92" d="M346.161,416.839a1.468,1.468,0,0,0-1.468,1.468v3.139a1.468,1.468,0,1,0,2.937,0v-3.139A1.468,1.468,0,0,0,346.161,416.839Z" transform="translate(-344.693 -416.839)" fill="#fff"/>
    </g>
  </g>
  <g id="Group_142" data-name="Group 142" transform="translate(73.765 81.612)">
    <g id="Group_141" data-name="Group 141">
      <path id="Path_93" data-name="Path 93" d="M378.226,416.839a1.468,1.468,0,0,0-1.468,1.468v3.139a1.468,1.468,0,1,0,2.937,0v-3.139A1.468,1.468,0,0,0,378.226,416.839Z" transform="translate(-376.758 -416.839)" fill="#fff"/>
    </g>
  </g>
  <g id="Group_144" data-name="Group 144" transform="translate(80.043 81.612)">
    <g id="Group_143" data-name="Group 143">
      <path id="Path_94" data-name="Path 94" d="M410.291,416.839a1.468,1.468,0,0,0-1.468,1.468v3.139a1.468,1.468,0,1,0,2.937,0v-3.139A1.468,1.468,0,0,0,410.291,416.839Z" transform="translate(-408.823 -416.839)" fill="#fff"/>
    </g>
  </g>
</svg>
