<svg xmlns="http://www.w3.org/2000/svg" width="93.993" height="85.68" viewBox="0 0 93.993 85.68">
  <g id="investor" transform="translate(0 -0.23)">
    <path id="Path_77" data-name="Path 77" d="M232.637,112.48a1.387,1.387,0,0,0,1.962.04l10.355-9.934,10.735,8.456a1.386,1.386,0,0,0,1.709.005l15.147-11.77L272,106.323a1.387,1.387,0,0,0,1.276,1.49c.036,0,.072,0,.108,0a1.387,1.387,0,0,0,1.381-1.281l.783-10.182a1.387,1.387,0,0,0-1.283-1.49L263.3,94.082a1.387,1.387,0,0,0-.2,2.767l7.369.526-13.92,10.818-10.831-8.531a1.386,1.386,0,0,0-1.818.089l-11.226,10.769a1.387,1.387,0,0,0-.041,1.961Zm0,0" transform="translate(-186.241 -75.256)" fill="#fff"/>
    <path id="Path_78" data-name="Path 78" d="M99.859,206.719H87.334A1.3,1.3,0,0,0,86,208.048v40.67H78.47v-32.99a1.463,1.463,0,0,0-1.379-1.48H64.567a1.441,1.441,0,0,0-1.351,1.48v32.99H55.688V230.03a1.312,1.312,0,0,0-1.364-1.321H41.8a1.314,1.314,0,0,0-1.366,1.321v18.688h-24.5a1.387,1.387,0,0,0,0,2.773h88.337a1.387,1.387,0,1,0,0-2.773h-3.023v-40.67a1.344,1.344,0,0,0-1.393-1.329Zm-33.87,10.3H75.7v31.7H65.989Zm-22.782,31.7V231.483h9.707v17.235Zm45.565,0V209.493h9.707v39.225Zm0,0" transform="translate(-11.668 -165.581)" fill="#fff"/>
    <path id="Path_79" data-name="Path 79" d="M46.933,54.424A6.757,6.757,0,0,0,53.669,47.6V45.419a6.736,6.736,0,1,0-13.471,0V47.6a6.757,6.757,0,0,0,6.736,6.828Zm-3.962-9a4.021,4.021,0,0,1,4.009-4.055h-.07A4,4,0,0,1,50.9,45.419V47.6a3.963,3.963,0,1,1-7.924,0Zm0,0" transform="translate(-32.234 -30.836)" fill="#fff"/>
    <path id="Path_80" data-name="Path 80" d="M.039,140.148a4.251,4.251,0,0,0,1.275,3.06,4.3,4.3,0,0,0,3.091,1.24h0l.049.043a4.256,4.256,0,0,0,1.826-.412l.733,24.657a4.639,4.639,0,0,0,7.891,3.145,4.637,4.637,0,0,0,7.893-3.143l.731-24.61a4.33,4.33,0,0,0,1.839.408,4.392,4.392,0,0,0,4.387-4.391V123.487a7.052,7.052,0,0,0-6.3-7.684,7.026,7.026,0,0,0-.7-.079H19.888a1.431,1.431,0,0,0-.949.419l-4.031,3.8-3.871-3.8a1.423,1.423,0,0,0-.967-.426H7.03A7.1,7.1,0,0,0,0,122.828c0,.211.039.447.039.659Zm18.116,30.3a1.873,1.873,0,0,1-1.871-1.867V144a1.387,1.387,0,1,0-2.773,0V168.58a1.864,1.864,0,0,1-3.727.05l-.845-28.54H20.872l-.849,28.532a1.886,1.886,0,0,1-1.868,1.826ZM4.012,119.789A4.28,4.28,0,0,1,7.029,118.5H9.507l4.418,4.341c.009.009.019.038.028.046s.038.046.057.062.033.032.05.045.041.033.062.046.036.025.053.036.042.026.063.037l.058.029.063.029.062.023.063.022.065.019.064.015.067.012.066.009.066.005.067,0c.022,0,.043,0,.065,0l.069,0,.063-.007.07-.011.062-.013.068-.018.06-.02.067-.024.06-.026.062-.03c.021-.01.039-.022.06-.033l.06-.036.057-.04c.019-.013.037-.027.055-.042s.036-.029.054-.046.02-.06.03-.07l4.6-4.358h2.317a4.333,4.333,0,0,1,.429.066,4.29,4.29,0,0,1,3.81,4.7c0,.046-.012.115-.012.162v16.725a1.585,1.585,0,1,1-3.17,0V136.5l.017-.573c0-.087-.017-.173-.017-.258v-6.722a1.387,1.387,0,1,0-2.773,0v7.508l-.084.857H8.856l-.063-1.5c0-.059-.036-.091-.036-.148v-6.722a1.387,1.387,0,1,0-2.773,0v11.112a1.551,1.551,0,0,1-1.555,1.612H4.406a1.539,1.539,0,0,1-1.131-.429,1.493,1.493,0,0,1-.462-1.1V123.421a1.354,1.354,0,0,0-.018-.139c-.015-.143-.028-.31-.028-.453a4.285,4.285,0,0,1,1.245-3.04Zm0,0" transform="translate(0 -92.612)" fill="#fff"/>
    <path id="Path_81" data-name="Path 81" d="M187.058,37.791a2.138,2.138,0,0,1-2.136-2.135,1.387,1.387,0,1,0-2.773,0,4.917,4.917,0,0,0,3.576,4.723v.956a1.387,1.387,0,0,0,2.773,0v-.987a4.909,4.909,0,0,0-1.44-9.6,2.135,2.135,0,1,1,2.134-2.135,1.387,1.387,0,0,0,2.773,0,4.916,4.916,0,0,0-3.666-4.749v-.754a1.387,1.387,0,0,0-2.773,0v.84a4.908,4.908,0,0,0,1.531,9.571,2.135,2.135,0,0,1,0,4.27Zm0,0" transform="translate(-146.064 -17.234)" fill="#fff"/>
    <path id="Path_82" data-name="Path 82" d="M147.217,29.734a14.752,14.752,0,1,0-14.752-14.752A14.752,14.752,0,0,0,147.217,29.734Zm0-26.731a11.978,11.978,0,1,1-11.978,11.978A11.978,11.978,0,0,1,147.217,3Zm0,0" transform="translate(-106.223 0)" fill="#fff"/>
  </g>
</svg>
