<svg id="left-arrow" xmlns="http://www.w3.org/2000/svg" width="15.874" height="13.185" viewBox="0 0 15.874 13.185">
  <g id="Group_3" data-name="Group 3" transform="translate(0 0)">
    <path id="Path_22" data-name="Path 22" d="M.892,49.511l-.025-.005H11.49L8.151,52.853a.877.877,0,0,0,0,1.233l.52.52a.869.869,0,0,0,1.227,0l5.724-5.724a.875.875,0,0,0,0-1.231L9.9,41.927a.87.87,0,0,0-1.227,0l-.52.52a.86.86,0,0,0-.253.613.834.834,0,0,0,.253.6l3.377,3.365H.88a.9.9,0,0,0-.88.891v.735A.882.882,0,0,0,.892,49.511Z" transform="translate(0 -41.674)" fill="#65a22e"/>
  </g>
</svg>
