<svg id="twitter_1_" data-name="twitter (1)" xmlns="http://www.w3.org/2000/svg" width="26.244" height="21.545" viewBox="0 0 26.244 21.545">
  <path id="twitter_1_2" data-name="twitter (1)" d="M.51,21.415A15.39,15.39,0,0,0,8.773,23.8,15.112,15.112,0,0,0,24.1,8.432a6.275,6.275,0,0,0,2.265-4.249.83.83,0,0,0-1.249-.715,3.427,3.427,0,0,1-2.787.467,5.918,5.918,0,0,0-7.01-.944,5.694,5.694,0,0,0-3.092,5.337A13.732,13.732,0,0,1,3.324,3.464a.83.83,0,0,0-1.355.11,5.775,5.775,0,0,0-.129,5.7.862.862,0,0,0-.72.859,5.845,5.845,0,0,0,2.036,4.414.828.828,0,0,0-.212.859,5.949,5.949,0,0,0,3.367,3.607,9.649,9.649,0,0,1-5.255.877A.829.829,0,0,0,.51,21.415ZM9,19.3a.829.829,0,0,0-.487-1.485A4.322,4.322,0,0,1,5.117,16.05a5.845,5.845,0,0,0,1.131-.181A.829.829,0,0,0,6.2,14.256a4.254,4.254,0,0,1-3.223-2.9,5.719,5.719,0,0,0,1.264.168.83.83,0,0,0,.472-1.52A4.117,4.117,0,0,1,2.945,5.514,15.407,15.407,0,0,0,13.151,10.07.827.827,0,0,0,14,9.056a4.043,4.043,0,0,1,2.11-4.6,4.237,4.237,0,0,1,5.18.787c.494.52,2.16.54,3.008.343a5.341,5.341,0,0,1-1.512,1.778.829.829,0,0,0-.352.719,13.474,13.474,0,0,1-3.71,9.9,13.571,13.571,0,0,1-9.949,4.159,13.916,13.916,0,0,1-4.465-.731A11.191,11.191,0,0,0,9,19.3Z" transform="translate(-0.124 -2.252)" fill="#65a22e"/>
</svg>
