<svg id="youtube_3_" data-name="youtube (3)" xmlns="http://www.w3.org/2000/svg" width="28.021" height="21.223" viewBox="0 0 28.021 21.223">
  <path id="Path_23" data-name="Path 23" d="M198.819,110.051l-6.19-3.387a1.137,1.137,0,0,0-1.683,1v6.716a1.135,1.135,0,0,0,1.676,1l6.191-3.329a1.137,1.137,0,0,0,.007-2Zm-6.231,3.482v-5.02l4.627,2.532Zm0,0" transform="translate(-180.496 -100.693)" fill="#65a22e"/>
  <path id="Path_24" data-name="Path 24" d="M27.814,5.009V5a6.408,6.408,0,0,0-1.235-3.252A4.56,4.56,0,0,0,23.557.328L23.418.312,23.369.306C19.665.037,14.07,0,14.014,0H14c-.056,0-5.65.037-9.388.306L4.567.312,4.436.327a4.445,4.445,0,0,0-3,1.46A6.716,6.716,0,0,0,.208,4.98l0,.029C.2,5.1,0,7.337,0,9.58v2.1c0,2.243.2,4.477.206,4.571v.014a6.345,6.345,0,0,0,1.231,3.212,4.653,4.653,0,0,0,3.121,1.4c.114.013.212.024.279.036l.065.009c2.139.2,8.845.3,9.129.308h.017c.056,0,5.65-.037,9.355-.306l.049-.005.157-.018a4.342,4.342,0,0,0,2.976-1.424,6.715,6.715,0,0,0,1.225-3.193l0-.029c.008-.094.206-2.328.206-4.571V9.58c0-2.243-.2-4.477-.206-4.571Zm-1.436,6.668c0,2.076-.181,4.214-.2,4.41a5.213,5.213,0,0,1-.806,2.275,2.7,2.7,0,0,1-1.938.9l-.175.02c-3.583.259-8.966.3-9.214.3-.278,0-6.886-.105-8.96-.3-.106-.017-.221-.031-.342-.044a3.07,3.07,0,0,1-2.1-.877l-.015-.016a4.73,4.73,0,0,1-.79-2.252c-.013-.148-.2-2.312-.2-4.417V9.58c0-2.074.181-4.209.2-4.41A5.107,5.107,0,0,1,2.645,2.9a2.833,2.833,0,0,1,1.979-.937l.134-.016c3.635-.26,9.057-.3,9.252-.3s5.615.04,9.217.3l.145.017a2.94,2.94,0,0,1,2.011.911l.007.007a4.806,4.806,0,0,1,.79,2.285c.012.14.2,2.308.2,4.418Zm0,0" transform="translate(0.001 0)" fill="#65a22e"/>
</svg>
