<svg id="Layer_1" data-name="Layer 1" xmlns="http://www.w3.org/2000/svg" viewBox="0 0 1202.82 306"><defs><style>.cls-1{fill:#65a22e;}</style></defs><title>AIC Logo Text-Color</title><path class="cls-1" d="M108.18,178.82H92.79L89,186.1H78.52l22.2-41.23h11.63L120,186.1H109.35Zm-3.58-22.91-7.87,15.27H107Z"/><path class="cls-1" d="M131.79,144.87h26.84l-1.41,7.93h-16.8l-1.53,8.87h12.57l-1.41,7.63H137.48l-2.93,16.8h-10Z"/><path class="cls-1" d="M180.77,144.87c10.1,0,14.15,5.82,12.86,13-.88,5.17-4.58,10-11.28,11.92L189,186.1H177.65l-5.81-15.56h-2.41l-2.76,15.56h-10l7.28-41.23Zm-2.06,8.22h-6.22l-1.82,10.34h6.22c3.76,0,5.87-1.94,6.46-5.17S182.47,153.09,178.71,153.09Z"/><path class="cls-1" d="M202.2,144.87h10.05L205,186.1h-10Z"/><path class="cls-1" d="M238.62,144.4c9.8,0,16.26,5.52,17,14.45h-11c-1.06-3.41-3.88-5.17-7.76-5.17-6.16,0-11.16,4.58-12.39,11.75s2.12,11.8,8.28,11.8a11.36,11.36,0,0,0,9.58-5.23h11a23.76,23.76,0,0,1-22.14,14.39c-12.16,0-19.15-8.63-17-21S226.46,144.4,238.62,144.4Z"/><path class="cls-1" d="M284,178.82H268.57l-3.76,7.28H254.29l22.2-41.23h11.63l7.64,41.23H285.13Zm-3.58-22.91-7.87,15.27h10.28Z"/><path class="cls-1" d="M321.13,144.87h10l-7.28,41.23H313.84Z"/><path class="cls-1" d="M375.34,144.87l-7.29,41.23H358l-12.28-25.43-4.52,25.43h-10l7.28-41.23H348.5l12.27,25.55,4.52-25.55Z"/><path class="cls-1" d="M379.5,144.87h10.69L395,176l15.68-31.13h10.69L399.41,186.1H386.84Z"/><path class="cls-1" d="M449.33,152.8H434.12l-1.47,8.57H446.1L444.75,169H431.3l-1.64,9.22h15.21l-1.41,7.93H418.21l7.28-41.23h25.25Z"/><path class="cls-1" d="M466.36,186.51c-9.22,0-16-4.34-15-12.74h10.45c-.24,2.87,1.41,4.81,4.82,4.81,2.93,0,4.93-1.29,4.93-3.81,0-6.64-17.62-5.06-17.74-17.27-.11-8.34,6.7-13.22,16-13.22,9,0,15.15,4.7,14.39,12.34H473.59c.35-2.59-1.24-4.41-4.23-4.41-2.82,0-4.76,1.47-4.76,3.82,0,6.34,17.8,5.7,17.8,17.85C482.4,181.17,476.29,186.51,466.36,186.51Z"/><path class="cls-1" d="M491.56,144.87h31.89l-1.35,7.93h-11l-5.87,33.3h-10l5.87-33.3H490.15Z"/><path class="cls-1" d="M528.5,144.87h11.86l6.58,28.54,16.44-28.54h11.81L567.9,186.1h-10l4.41-24.73L548.64,186.1h-8.1l-4.94-24.84-4.34,24.84h-10Z"/><path class="cls-1" d="M606.25,152.8H591l-1.47,8.57H603L601.67,169H588.22l-1.64,9.22h15.21l-1.41,7.93H575.13l7.28-41.23h25.25Z"/><path class="cls-1" d="M651.06,144.87l-7.28,41.23h-10l-12.28-25.43-4.52,25.43h-10l7.28-41.23h10l12.28,25.55L641,144.87Z"/><path class="cls-1" d="M656.11,144.87H688l-1.35,7.93h-11l-5.87,33.3h-10l5.88-33.3H654.7Z"/><path class="cls-1" d="M724.83,154.62a3.3,3.3,0,0,0,0-.7c0-1.53-1.17-2.35-2.7-2.35a3.66,3.66,0,0,0-3.82,3.64c0,1.47.77,3,2.35,5L729,170c.35-.53.7-1.06,1-1.65l2.82-3.7H743l-3.7,5.11a55.12,55.12,0,0,1-4.87,6.64l8.22,9.69H730.93l-3.17-3.7a24.89,24.89,0,0,1-14.39,4.35c-8.57,0-13.92-4.06-13.92-10.58s4.64-11.33,11.1-14.09a9.8,9.8,0,0,1-1.82-5.52c0-7.34,6.17-12.22,14.69-12.22,7.34,0,11,3.82,11,8.52a9.22,9.22,0,0,1-.18,1.76Zm-2.18,21.85-7.57-8.87c-3.29,1.53-5.35,3.93-5.35,6.69,0,2.47,2,4.35,5.64,4.35A13.08,13.08,0,0,0,722.65,176.47Z"/><path class="cls-1" d="M786.72,144.4c9.81,0,16.27,5.52,17,14.45h-11c-1.06-3.41-3.88-5.17-7.76-5.17-6.16,0-11.16,4.58-12.39,11.75s2.11,11.8,8.28,11.8a11.34,11.34,0,0,0,9.57-5.23h11.05a23.77,23.77,0,0,1-22.15,14.39c-12.15,0-19.14-8.63-17-21S774.57,144.4,786.72,144.4Z"/><path class="cls-1" d="M824.72,186.51c-10.57,0-17.5-7-17.5-17.32,0-14.63,10.1-24.91,24.37-24.91,10.75,0,17.62,6.93,17.62,17.15C849.21,176.06,839.17,186.51,824.72,186.51Zm1.53-9.28c8,0,13-6.87,13-14.68,0-5.58-3.23-9.05-8.93-9.05-8,0-13,6.76-13,14.63C817.26,173.71,820.43,177.23,826.25,177.23Z"/><path class="cls-1" d="M895.43,144.87l-7.28,41.23h-10l-12.28-25.43-4.52,25.43h-10l7.28-41.23h10l12.28,25.55,4.52-25.55Z"/><path class="cls-1" d="M911.82,186.51c-9.23,0-16-4.34-15-12.74h10.45c-.23,2.87,1.41,4.81,4.82,4.81,2.94,0,4.93-1.29,4.93-3.81,0-6.64-17.62-5.06-17.73-17.27-.12-8.34,6.69-13.22,16-13.22,9,0,15.15,4.7,14.39,12.34H919c.35-2.59-1.23-4.41-4.23-4.41-2.82,0-4.76,1.47-4.76,3.82,0,6.34,17.8,5.7,17.8,17.85C927.85,181.17,921.74,186.51,911.82,186.51Z"/><path class="cls-1" d="M939.07,144.87h10l-4.35,24.61c-.88,4.87,1.06,7.69,5.82,7.69s7.81-2.82,8.63-7.69l4.35-24.61h10l-4.35,24.61c-2,11.57-10.74,17-20.44,17-9.51,0-16.09-5.64-14-17Z"/><path class="cls-1" d="M990.69,144.87l-5.93,33.59h13.15l-1.35,7.64h-23.2l7.28-41.23Z"/><path class="cls-1" d="M1006.43,144.87h31.89L1037,152.8h-11l-5.87,33.3h-10l5.87-33.3H1005Z"/><path class="cls-1" d="M1063,178.82h-15.39l-3.76,7.28h-10.51l22.2-41.23h11.63l7.63,41.23h-10.62Zm-3.58-22.91-7.87,15.27h10.28Z"/><path class="cls-1" d="M1123.53,144.87l-7.28,41.23h-10l-12.28-25.43-4.52,25.43h-10l7.28-41.23h10L1109,170.42l4.52-25.55Z"/><path class="cls-1" d="M1128.58,144.87h31.89l-1.35,7.93h-11l-5.88,33.3h-10l5.87-33.3h-10.92Z"/></svg>