<svg id="Layer_1" data-name="Layer 1" xmlns="http://www.w3.org/2000/svg" viewBox="0 0 1202.82 306"><defs><style>.cls-1{fill:#fff;}</style></defs><title>AIC Logo Text-White</title><path class="cls-1" d="M108.18,176H92.79L89,183.28H78.52l22.2-41.23h11.63L120,183.28H109.35Zm-3.58-22.9-7.87,15.27H107Z"/><path class="cls-1" d="M131.79,142.05h26.84L157.22,150h-16.8l-1.53,8.86h12.57l-1.41,7.64H137.49l-2.94,16.8h-10Z"/><path class="cls-1" d="M180.77,142.05c10.1,0,14.15,5.81,12.86,13-.88,5.17-4.58,10-11.28,11.92L189,183.28H177.66l-5.82-15.57h-2.41l-2.76,15.57h-10l7.28-41.23Zm-2.06,8.22h-6.22l-1.82,10.34h6.22c3.76,0,5.87-1.94,6.46-5.17S182.47,150.27,178.71,150.27Z"/><path class="cls-1" d="M202.2,142.05h10.05L205,183.28h-10Z"/><path class="cls-1" d="M238.62,141.58c9.8,0,16.26,5.52,17,14.45h-11c-1.06-3.41-3.88-5.17-7.76-5.17-6.16,0-11.15,4.58-12.39,11.74s2.12,11.81,8.28,11.81a11.35,11.35,0,0,0,9.58-5.23h11a23.76,23.76,0,0,1-22.14,14.39c-12.16,0-19.15-8.63-17-21S226.46,141.58,238.62,141.58Z"/><path class="cls-1" d="M284,176H268.57l-3.76,7.29H254.3l22.2-41.23h11.62l7.64,41.23H285.13Zm-3.58-22.9-7.87,15.27h10.28Z"/><path class="cls-1" d="M321.13,142.05h10l-7.28,41.23h-10Z"/><path class="cls-1" d="M375.34,142.05l-7.29,41.23H358l-12.27-25.43-4.53,25.43h-10l7.28-41.23H348.5l12.27,25.55,4.52-25.55Z"/><path class="cls-1" d="M379.51,142.05h10.68L395,173.17l15.68-31.12h10.69l-21.91,41.23H386.85Z"/><path class="cls-1" d="M449.33,150H434.12l-1.47,8.57H446.1l-1.35,7.58H431.3l-1.64,9.22h15.21l-1.41,7.93H418.21l7.28-41.23h25.25Z"/><path class="cls-1" d="M466.36,183.69c-9.22,0-16-4.35-15-12.75h10.45c-.23,2.88,1.41,4.82,4.82,4.82,2.93,0,4.93-1.29,4.93-3.82,0-6.64-17.62-5.05-17.74-17.27-.11-8.34,6.7-13.21,16-13.21,9,0,15.15,4.7,14.39,12.33H473.59c.35-2.58-1.24-4.4-4.23-4.4-2.82,0-4.76,1.47-4.76,3.82,0,6.34,17.8,5.69,17.8,17.85C482.4,178.34,476.29,183.69,466.36,183.69Z"/><path class="cls-1" d="M491.56,142.05h31.89L522.1,150h-11l-5.87,33.3h-10l5.87-33.3H490.15Z"/><path class="cls-1" d="M528.5,142.05h11.86l6.58,28.54,16.44-28.54h11.81l-7.28,41.23h-10l4.41-24.73-13.63,24.73h-8.1l-4.94-24.85-4.34,24.85h-10Z"/><path class="cls-1" d="M606.26,150H591l-1.46,8.57H603l-1.35,7.58H588.22l-1.64,9.22h15.21l-1.41,7.93H575.13l7.28-41.23h25.25Z"/><path class="cls-1" d="M651.06,142.05l-7.28,41.23h-10l-12.28-25.43-4.52,25.43h-10l7.28-41.23h10L636.5,167.6,641,142.05Z"/><path class="cls-1" d="M656.11,142.05H688L686.65,150h-11l-5.87,33.3h-10l5.87-33.3H654.7Z"/><path class="cls-1" d="M724.83,151.8a3.4,3.4,0,0,0,0-.71c0-1.52-1.17-2.35-2.7-2.35a3.66,3.66,0,0,0-3.81,3.64c0,1.47.76,3,2.35,5l8.28,9.8c.35-.52.7-1.05,1-1.64l2.82-3.7H743l-3.7,5.11a55.12,55.12,0,0,1-4.87,6.64l8.22,9.69H730.93l-3.17-3.7a25,25,0,0,1-14.39,4.34c-8.57,0-13.92-4-13.92-10.57s4.64-11.33,11.1-14.09a9.8,9.8,0,0,1-1.82-5.52c0-7.35,6.17-12.22,14.69-12.22,7.34,0,11,3.82,11,8.52a9.3,9.3,0,0,1-.18,1.76Zm-2.18,21.84-7.57-8.86c-3.29,1.52-5.35,3.93-5.35,6.69,0,2.47,2,4.35,5.64,4.35A13.09,13.09,0,0,0,722.65,173.64Z"/><path class="cls-1" d="M786.73,141.58c9.8,0,16.26,5.52,17,14.45h-11c-1.06-3.41-3.88-5.17-7.76-5.17-6.16,0-11.16,4.58-12.39,11.74s2.12,11.81,8.28,11.81a11.36,11.36,0,0,0,9.58-5.23h11a23.76,23.76,0,0,1-22.14,14.39c-12.16,0-19.15-8.63-17-21S774.57,141.58,786.73,141.58Z"/><path class="cls-1" d="M824.72,183.69c-10.57,0-17.5-7.05-17.5-17.33,0-14.62,10.1-24.9,24.37-24.9,10.75,0,17.62,6.93,17.62,17.15C849.21,173.23,839.17,183.69,824.72,183.69Zm1.53-9.28c8,0,13-6.87,13-14.68,0-5.58-3.23-9-8.93-9-8,0-13,6.75-13,14.62C817.26,170.88,820.43,174.41,826.25,174.41Z"/><path class="cls-1" d="M895.43,142.05l-7.28,41.23h-10l-12.28-25.43-4.52,25.43h-10l7.28-41.23h10l12.28,25.55,4.52-25.55Z"/><path class="cls-1" d="M911.82,183.69c-9.22,0-16-4.35-15-12.75h10.45c-.23,2.88,1.41,4.82,4.82,4.82,2.94,0,4.93-1.29,4.93-3.82,0-6.64-17.62-5.05-17.73-17.27-.12-8.34,6.69-13.21,16-13.21,9,0,15.15,4.7,14.39,12.33H919c.35-2.58-1.23-4.4-4.23-4.4-2.82,0-4.76,1.47-4.76,3.82,0,6.34,17.8,5.69,17.8,17.85C927.85,178.34,921.74,183.69,911.82,183.69Z"/><path class="cls-1" d="M939.07,142.05h10l-4.35,24.61c-.88,4.87,1.06,7.69,5.82,7.69s7.81-2.82,8.63-7.69l4.35-24.61h10l-4.35,24.61c-2,11.57-10.74,17-20.43,17-9.52,0-16.1-5.64-14-17Z"/><path class="cls-1" d="M990.69,142.05l-5.93,33.59h13.15l-1.35,7.64h-23.2l7.29-41.23Z"/><path class="cls-1" d="M1006.43,142.05h31.89L1037,150h-11l-5.87,33.3h-10l5.87-33.3H1005Z"/><path class="cls-1" d="M1063,176h-15.39l-3.76,7.29h-10.51l22.2-41.23h11.63l7.64,41.23h-10.63Zm-3.58-22.9-7.87,15.27h10.28Z"/><path class="cls-1" d="M1123.53,142.05l-7.28,41.23h-10l-12.28-25.43-4.52,25.43h-10l7.28-41.23h10L1109,167.6l4.52-25.55Z"/><path class="cls-1" d="M1128.58,142.05h31.89l-1.35,7.93h-11l-5.87,33.3h-10l5.88-33.3h-10.93Z"/></svg>